<?xml version="1.0" encoding="UTF-8"?>
<svg xmlns="http://www.w3.org/2000/svg" xmlns:xlink="http://www.w3.org/1999/xlink" width="30pt" height="30pt" viewBox="0 0 30 30" version="1.1">
<g id="surface1">
<path style=" stroke:none;fill-rule:nonzero;fill:rgb(54.509804%,71.764706%,94.117647%);fill-opacity:1;" d="M 1.515625 26.5 C 1.773438 22.597656 5.03125 19.5 9 19.5 L 15 19.5 C 18.96875 19.5 22.226563 22.597656 22.484375 26.5 Z "/>
<path style=" stroke:none;fill-rule:nonzero;fill:rgb(30.588235%,47.843137%,70.980392%);fill-opacity:1;" d="M 15 20 C 18.519531 20 21.441406 22.613281 21.929688 26 L 2.070313 26 C 2.558594 22.613281 5.480469 20 9 20 L 15 20 M 15 19 L 9 19 C 4.582031 19 1 22.582031 1 27 L 23 27 C 23 22.582031 19.417969 19 15 19 Z "/>
<path style=" stroke:none;fill-rule:nonzero;fill:rgb(87.058824%,72.54902%,45.490196%);fill-opacity:1;" d="M 12 21.5 C 9.71875 21.5 8.945313 20.222656 8.785156 19.894531 L 8.785156 16.070313 L 15.214844 16.070313 L 15.214844 19.894531 C 15.058594 20.214844 14.289063 21.5 12 21.5 Z "/>
<path style=" stroke:none;fill-rule:nonzero;fill:rgb(58.823529%,47.843137%,26.666667%);fill-opacity:1;" d="M 14.714844 16.570313 L 14.714844 19.765625 C 14.507813 20.109375 13.804688 21 12 21 C 10.183594 21 9.480469 20.101563 9.285156 19.769531 L 9.285156 16.570313 L 14.714844 16.570313 M 15.714844 15.570313 L 8.285156 15.570313 L 8.285156 20 C 8.285156 20 9.027344 22 12 22 C 14.972656 22 15.714844 20 15.714844 20 Z "/>
<path style=" stroke:none;fill-rule:nonzero;fill:rgb(87.058824%,72.54902%,45.490196%);fill-opacity:1;" d="M 17 13.5 C 16.171875 13.5 15.5 12.890625 15.5 12.144531 C 15.5 11.394531 16.171875 10.785156 17 10.785156 C 18.5 10.785156 18.5 11.230469 18.5 11.523438 C 18.5 12.351563 17.742188 13.5 17 13.5 Z M 7 13.5 C 6.257813 13.5 5.5 12.351563 5.5 11.523438 C 5.5 11.230469 5.5 10.785156 7 10.785156 C 7.828125 10.785156 8.5 11.394531 8.5 12.140625 C 8.5 12.890625 7.828125 13.5 7 13.5 Z "/>
<path style=" stroke:none;fill-rule:nonzero;fill:rgb(58.823529%,47.843137%,26.666667%);fill-opacity:1;" d="M 17 11.285156 C 17.785156 11.285156 17.976563 11.414063 17.988281 11.414063 C 17.988281 11.421875 18 11.449219 18 11.523438 C 18 12.132813 17.410156 13 17 13 C 16.449219 13 16 12.613281 16 12.144531 C 16 11.671875 16.449219 11.285156 17 11.285156 M 7 11.285156 C 7.550781 11.285156 8 11.671875 8 12.140625 C 8 12.613281 7.550781 13 7 13 C 6.589844 13 6 12.132813 6 11.523438 C 6 11.46875 6.007813 11.4375 6.003906 11.429688 C 6.042969 11.402344 6.25 11.285156 7 11.285156 M 17 10.285156 C 15.894531 10.285156 15 11.117188 15 12.140625 C 15 13.167969 15.894531 14 17 14 C 18.105469 14 19 12.550781 19 11.523438 C 19 10.496094 18.105469 10.285156 17 10.285156 Z M 7 10.285156 C 5.894531 10.285156 5 10.496094 5 11.523438 C 5 12.550781 5.894531 14 7 14 C 8.105469 14 9 13.167969 9 12.144531 C 9 11.117188 8.105469 10.285156 7 10.285156 Z "/>
<path style=" stroke:none;fill-rule:nonzero;fill:rgb(96.078431%,80.784314%,52.156863%);fill-opacity:1;" d="M 12 18.5 C 11.617188 18.5 11.261719 18.339844 11 18.050781 L 10.890625 17.925781 L 10.726563 17.894531 C 8.277344 17.398438 6.5 15.222656 6.5 12.71875 L 6.5 6.554688 C 6.5 5.308594 7.511719 4.296875 8.753906 4.296875 L 15.242188 4.296875 C 16.488281 4.296875 17.5 5.308594 17.5 6.554688 L 17.5 12.71875 C 17.5 15.222656 15.722656 17.398438 13.273438 17.894531 L 13.109375 17.925781 L 13 18.050781 C 12.738281 18.339844 12.382813 18.5 12 18.5 Z "/>
<path style=" stroke:none;fill-rule:nonzero;fill:rgb(58.823529%,47.843137%,26.666667%);fill-opacity:1;" d="M 15.246094 4.796875 C 16.210938 4.796875 17 5.585938 17 6.554688 L 17 12.71875 C 17 14.984375 15.390625 16.953125 13.175781 17.402344 L 12.851563 17.46875 L 12.632813 17.714844 C 12.535156 17.820313 12.324219 18 12 18 C 11.675781 18 11.464844 17.820313 11.367188 17.714844 L 11.148438 17.46875 L 10.824219 17.402344 C 8.609375 16.953125 7 14.984375 7 12.71875 L 7 6.554688 C 7 5.585938 7.789063 4.796875 8.753906 4.796875 L 15.246094 4.796875 M 15.246094 3.796875 L 8.753906 3.796875 C 7.234375 3.796875 6 5.03125 6 6.554688 L 6 12.71875 C 6 15.515625 7.988281 17.847656 10.628906 18.382813 C 10.96875 18.761719 11.453125 19 12 19 C 12.546875 19 13.03125 18.761719 13.371094 18.382813 C 16.011719 17.847656 18 15.515625 18 12.71875 L 18 6.554688 C 18 5.03125 16.765625 3.796875 15.246094 3.796875 Z "/>
<path style=" stroke:none;fill-rule:nonzero;fill:rgb(65.098039%,44.313725%,30.588235%);fill-opacity:1;" d="M 17.5 12.5 L 17.5 10.722656 C 17.5 8.023438 15.417969 6.160156 15.332031 6.078125 L 14.984375 5.777344 L 14.652344 6.09375 C 14.640625 6.105469 13.113281 7.5 9.898438 7.5 C 7.835938 7.5 6.5 8.820313 6.5 10.867188 L 6.5 12.5 L 6.390625 12.5 C 6.144531 11.5 5.5 8.769531 5.5 7.605469 C 5.5 3.894531 8.050781 1.5 12 1.5 C 13.714844 1.5 14.890625 2.992188 14.902344 3.007813 L 15.050781 3.203125 L 15.296875 3.203125 C 16.40625 3.203125 18.5 4.058594 18.5 7.304688 C 18.5 9.132813 17.875 11.589844 17.625 12.5 Z "/>
<path style=" stroke:none;fill-rule:nonzero;fill:rgb(47.843137%,30.980392%,20.392157%);fill-opacity:1;" d="M 12 2 C 13.449219 2 14.496094 3.304688 14.503906 3.316406 L 14.804688 3.703125 L 15.296875 3.703125 C 16.230469 3.703125 18 4.457031 18 7.304688 C 18 7.917969 17.925781 8.609375 17.820313 9.285156 C 17.285156 7.15625 15.738281 5.773438 15.660156 5.703125 L 14.980469 5.121094 L 14.316406 5.726563 C 14.261719 5.777344 12.886719 7 9.898438 7 C 8.09375 7 6.746094 7.933594 6.230469 9.425781 C 6.097656 8.695313 6 8.027344 6 7.605469 C 6 4.199219 8.355469 2 12 2 M 12 1 C 7.703125 1 5 3.714844 5 7.605469 C 5 9.121094 6 13 6 13 L 7 13 C 7 13 7 11.582031 7 10.867188 C 7 8.902344 8.335938 8 9.898438 8 C 13.386719 8 15 6.453125 15 6.453125 C 15 6.453125 17 8.214844 17 10.722656 C 17 11.507813 17 13 17 13 L 18 13 C 18 13 19 9.675781 19 7.304688 C 19 3.976563 16.859375 2.703125 15.296875 2.703125 C 15.296875 2.703125 13.980469 1 12 1 Z "/>
<path style=" stroke:none;fill-rule:nonzero;fill:rgb(72.941176%,87.843137%,74.117647%);fill-opacity:1;" d="M 29.5 23 C 29.5 26.589844 26.589844 29.5 23 29.5 C 19.410156 29.5 16.5 26.589844 16.5 23 C 16.5 19.410156 19.410156 16.5 23 16.5 C 26.589844 16.5 29.5 19.410156 29.5 23 Z "/>
<path style=" stroke:none;fill-rule:nonzero;fill:rgb(36.862745%,61.176471%,46.27451%);fill-opacity:1;" d="M 23 17 C 26.308594 17 29 19.691406 29 23 C 29 26.308594 26.308594 29 23 29 C 19.691406 29 17 26.308594 17 23 C 17 19.691406 19.691406 17 23 17 M 23 16 C 19.132813 16 16 19.132813 16 23 C 16 26.867188 19.132813 30 23 30 C 26.867188 30 30 26.867188 30 23 C 30 19.132813 26.867188 16 23 16 Z "/>
<path style="fill:none;stroke-width:2;stroke-linecap:butt;stroke-linejoin:miter;stroke:rgb(100%,100%,100%);stroke-opacity:1;stroke-miterlimit:10;" d="M 23 27 L 23 19 "/>
<path style="fill:none;stroke-width:2;stroke-linecap:butt;stroke-linejoin:miter;stroke:rgb(100%,100%,100%);stroke-opacity:1;stroke-miterlimit:10;" d="M 19 23 L 27 23 "/>
</g>
</svg>
