<svg version="1.1" id="Layer_1" xmlns="http://www.w3.org/2000/svg" xmlns:xlink="http://www.w3.org/1999/xlink" x="0px" y="0px" viewBox="0 0 40 40" style="enable-background:new 0 0 40 40;" xml:space="preserve" width="50" height="50">
<g>
	<g>
		<path style="fill:#66798F;" d="M25,3c1.103,0,2,0.897,2,2v3H13V5c0-1.103,0.897-2,2-2H25 M25,2H15c-1.657,0-3,1.343-3,3v4h16V5&#10;&#9;&#9;&#9;C28,3.343,26.657,2,25,2L25,2z"/>
	</g>
</g>
<g>
	<path style="fill:#B0C1D4;" d="M4,35.5c-1.379,0-2.5-1.122-2.5-2.5V9c0-1.378,1.121-2.5,2.5-2.5h32c1.379,0,2.5,1.122,2.5,2.5v24&#10;&#9;&#9;c0,1.378-1.121,2.5-2.5,2.5H4z"/>
	<g>
		<path style="fill:#66798F;" d="M36,7c1.103,0,2,0.897,2,2v24c0,1.103-0.897,2-2,2H4c-1.103,0-2-0.897-2-2V9c0-1.103,0.897-2,2-2&#10;&#9;&#9;&#9;H36 M36,6H4C2.343,6,1,7.343,1,9v24c0,1.657,1.343,3,3,3h32c1.657,0,3-1.343,3-3V9C39,7.343,37.657,6,36,6L36,6z"/>
	</g>
</g>
<path style="fill:#66798F;" d="M29,7h-3V6.5C26,5.672,26.672,5,27.5,5h0C28.328,5,29,5.672,29,6.5V7z"/>
<path style="fill:#66798F;" d="M14,7h-3V6.5C11,5.672,11.672,5,12.5,5h0C13.328,5,14,5.672,14,6.5V7z"/>
<rect x="32" y="35" style="fill:#66798F;" width="3" height="2"/>
<rect x="5" y="35" style="fill:#66798F;" width="3" height="2"/>
<rect x="23" y="11" style="fill:#C1D1E0;" width="1" height="20"/>
<rect x="16" y="11" style="fill:#C1D1E0;" width="1" height="20"/>
<rect x="9" y="11" style="fill:#C1D1E0;" width="1" height="20"/>
<rect x="30" y="11" style="fill:#C1D1E0;" width="1" height="20"/>
</svg>