<svg version="1.1" id="Layer_1" xmlns="http://www.w3.org/2000/svg" xmlns:xlink="http://www.w3.org/1999/xlink" x="0px" y="0px" viewBox="0 0 80 80" style="enable-background:new 0 0 80 80;" xml:space="preserve" width="50" height="50">
<g>
	<path style="fill:#8BB7F0;" d="M8.505,77.5c0.267-12.729,10.703-23,23.494-23h16c12.791,0,23.228,10.271,23.495,23H8.505z"/>
	<g>
		<path style="fill:#4E7AB5;" d="M48,55c12.347,0,22.453,9.78,22.979,22L9.021,77C9.547,64.78,19.653,55,32,55H48 M48,54H32&#10;&#9;&#9;&#9;C18.745,54,8,64.745,8,78v0h64v0C72,64.745,61.255,54,48,54L48,54z"/>
	</g>
</g>
<g>
	<polygon style="fill:#DEB974;" points="30.5,55.882 30.5,44.5 49.5,44.5 49.5,55.882 40,63.363 &#9;"/>
	<g>
		<path style="fill:#967A44;" d="M49,45v10.638l-9,7.089l-9-7.089V45H49 M50,44H30v12.124L40,64l10-7.876V44L50,44z"/>
	</g>
</g>
<polygon style="fill:#4E7AB5;" points="45.202,59.237 40,60.609 34.801,59.246 38,66 34,78 46,78 42,66 "/>
<g>
	<g>
		<path style="fill:#DEB974;" d="M54.286,38.929c-2.875,0-5.214-2.34-5.214-5.215s2.339-5.214,5.214-5.214&#10;&#9;&#9;&#9;c3.704,0,5.214,0.959,5.214,3.31C59.5,34.621,57.164,38.929,54.286,38.929z"/>
		<g>
			<path style="fill:#967A44;" d="M54.286,29C58.211,29,59,30.075,59,31.809c0,2.829-2.331,6.619-4.714,6.619&#10;&#9;&#9;&#9;&#9;c-2.6,0-4.714-2.115-4.714-4.714C49.571,31.115,51.686,29,54.286,29 M54.286,28c-3.156,0-5.714,2.558-5.714,5.714&#10;&#9;&#9;&#9;&#9;s2.558,5.714,5.714,5.714c3.156,0,5.714-4.463,5.714-7.619C60,28.653,57.441,28,54.286,28L54.286,28z"/>
		</g>
	</g>
	<g>
		<path style="fill:#DEB974;" d="M25.714,38.929c-2.878,0-5.214-4.308-5.214-7.119c0-2.351,1.511-3.31,5.214-3.31&#10;&#9;&#9;&#9;c2.875,0,5.214,2.339,5.214,5.214S28.589,38.929,25.714,38.929z"/>
		<g>
			<path style="fill:#967A44;" d="M25.714,29c2.6,0,4.714,2.115,4.714,4.714c0,2.599-2.115,4.714-4.714,4.714&#10;&#9;&#9;&#9;&#9;c-2.384,0-4.714-3.79-4.714-6.619C21,30.075,21.788,29,25.714,29 M25.714,28C22.558,28,20,28.653,20,31.809&#10;&#9;&#9;&#9;&#9;c0,3.156,2.558,7.619,5.714,7.619c3.156,0,5.714-2.558,5.714-5.714S28.87,28,25.714,28L25.714,28z"/>
		</g>
	</g>
</g>
<g>
	<g>
		<path style="fill:#F5CE85;" d="M40,53.5c-1.343,0-2.639-0.495-3.649-1.394l-0.09-0.08l-0.117-0.03&#10;&#9;&#9;&#9;C29.288,50.237,24.5,44.07,24.5,37V18.403c0-3.93,3.196-7.126,7.125-7.126h16.75c3.929,0,7.125,3.196,7.125,7.126V37&#10;&#9;&#9;&#9;c0,7.07-4.788,13.237-11.644,14.996l-0.117,0.03l-0.09,0.08C42.638,53.005,41.342,53.5,40,53.5z"/>
	</g>
	<g>
		<path style="fill:#967A44;" d="M48.374,11.778c3.653,0,6.625,2.972,6.625,6.625V37c0,6.842-4.633,12.81-11.268,14.512l-0.235,0.06&#10;&#9;&#9;&#9;l-0.181,0.161C42.398,52.55,41.22,53,40,53c-1.22,0-2.398-0.45-3.316-1.267l-0.181-0.161l-0.235-0.06&#10;&#9;&#9;&#9;C29.633,49.81,25,43.842,25,37V18.403c0-3.653,2.972-6.625,6.625-6.625H48.374 M48.374,10.778H31.625&#10;&#9;&#9;&#9;c-4.211,0-7.625,3.414-7.625,7.625V37c0,7.46,5.112,13.708,12.019,15.48C37.079,53.423,38.47,54,40,54s2.921-0.577,3.981-1.52&#10;&#9;&#9;&#9;C50.888,50.708,56,44.459,56,37V18.403C56,14.192,52.586,10.778,48.374,10.778L48.374,10.778z"/>
	</g>
</g>
<g>
	<path style="fill:#A6714E;" d="M55.5,35.5V28c0-7.021-6.831-10.765-7.121-10.92l-0.351-0.188l-0.262,0.301&#10;&#9;&#9;c-0.053,0.06-5.36,6.021-14.466,6.021c-3.778,0-8.8,0.703-8.8,6.786v5.5h-0.181c-0.686-1.507-3.819-8.734-3.819-14.878&#10;&#9;&#9;C20.5,9.782,27.935,2.5,39,2.5c8.036,0,10.44,5.461,10.539,5.693l0.129,0.306L50,8.5c3.528,0,9.5,2.429,9.5,11.53&#10;&#9;&#9;c0,5.623-3.163,13.793-3.836,15.47H55.5z"/>
	<g>
		<path style="fill:#7A4F34;" d="M39,3c7.678,0,9.985,5.17,10.077,5.385L49.334,9H50c0.921,0,9,0.31,9,11.03&#10;&#9;&#9;&#9;c0,4.238-1.84,9.983-3,13.181V28c0-7.316-7.083-11.199-7.384-11.361l-0.702-0.374l-0.524,0.598&#10;&#9;&#9;&#9;c-0.051,0.059-5.229,5.851-14.09,5.851c-2.3,0-9.3,0-9.3,7.286v3.477c-1.152-2.863-3-8.182-3-12.855C21,10.082,28.233,3,39,3&#10;&#9;&#9;&#9; M39,2C27.362,2,20,9.962,20,20.623C20,27.684,24,36,24,36h1c0,0,0-4.057,0-6c0-5.336,4.048-6.286,8.3-6.286&#10;&#9;&#9;&#9;c9.46,0,14.843-6.193,14.843-6.193S55,21.198,55,28c0,2.137,0,8,0,8h1c0,0,4-9.535,4-15.97C60,10.995,54.247,8,50,8&#10;&#9;&#9;&#9;C50,8,47.494,2,39,2L39,2z"/>
	</g>
</g>
<g>
	<rect x="48.5" y="68.5" style="fill:#FFFFFF;" width="15" height="9"/>
	<path style="fill:#788B9C;" d="M63,69v8H49v-8H63 M64,68H48v10h16V68L64,68z"/>
</g>
</svg>