<svg version="1.1" id="Layer_1" xmlns="http://www.w3.org/2000/svg" xmlns:xlink="http://www.w3.org/1999/xlink" x="0px" y="0px" viewBox="0 0 80 80" style="enable-background:new 0 0 80 80;" xml:space="preserve" width="50" height="50">
<g>
	<rect x="4.5" y="14.5" style="fill:#DBF2FF;" width="71" height="63"/>
	<g>
		<path style="fill:#7496C4;" d="M75,15v62H5V15H75 M76,14H4v64h72V14L76,14z"/>
	</g>
</g>
<rect x="5" y="71" style="fill:#B5DDF5;" width="70" height="6"/>
<g>
	<rect x="30.5" y="42.5" style="fill:#FFC49C;" width="19" height="35"/>
	<path style="fill:#A16A4A;" d="M49,43v34H31V43H49 M50,42H30v36h20V42L50,42z"/>
</g>
<g>
	<polygon style="fill:#F78F8F;" points="56.49,33.5 40,17.299 23.51,33.5 2.5,33.5 2.5,2.5 77.5,2.5 77.5,33.5 &#9;"/>
	<path style="fill:#C74343;" d="M77,3v30H56.695L40.701,17.287L40,16.598l-0.701,0.689L23.305,33H3V3H77 M78,2H2v32h21.714L40,18&#10;&#9;&#9;l16.286,16H78V2L78,2z"/>
</g>
<g>
	<rect x="56.5" y="42.5" style="fill:#8BB7F0;" width="11" height="17"/>
	<g>
		<path style="fill:#4E7AB5;" d="M67,43v16H57V43H67 M68,42H56v18h12V42L68,42z"/>
	</g>
</g>
<g>
	<rect x="12.5" y="42.5" style="fill:#8BB7F0;" width="11" height="17"/>
	<g>
		<path style="fill:#4E7AB5;" d="M23,43v16H13V43H23 M24,42H12v18h12V42L24,42z"/>
	</g>
</g>
<circle style="fill:#A16A4A;" cx="46" cy="61" r="1"/>
</svg>