<?xml version="1.0" encoding="iso-8859-1"?>
<!-- Generator: Adobe Illustrator 19.1.1, SVG Export Plug-In . SVG Version: 6.00 Build 0)  -->
<svg xmlns="http://www.w3.org/2000/svg" xmlns:xlink="http://www.w3.org/1999/xlink" version="1.1" id="Layer_1" x="0px" y="0px" viewBox="0 0 80 80" style="enable-background:new 0 0 80 80;" xml:space="preserve" width="16px" height="16px">
<g>
	<rect x="4.5" y="6.5" style="fill:#FFFFFF;" width="71" height="67"/>
	<g>
		<path style="fill:#788B9C;" d="M75,7v66H5V7H75 M76,6H4v68h72V6L76,6z"/>
	</g>
</g>
<g>
	<rect x="4.5" y="6.5" style="fill:#C2E8FF;" width="71" height="19"/>
	<g>
		<path style="fill:#7496C4;" d="M75,7v18H5V7H75 M76,6H4v20h72V6L76,6z"/>
	</g>
</g>
<rect x="44" y="32" style="fill:#788B9C;" width="24" height="1"/>
<rect x="12" y="14" style="fill:#7496C4;" width="4" height="4"/>
<rect x="20" y="14" style="fill:#7496C4;" width="4" height="4"/>
<rect x="28" y="14" style="fill:#7496C4;" width="4" height="4"/>
<rect x="44" y="40" style="fill:#788B9C;" width="24" height="1"/>
<rect x="44" y="48" style="fill:#788B9C;" width="24" height="1"/>
<rect x="44" y="56" style="fill:#788B9C;" width="24" height="1"/>
<rect x="44" y="64" style="fill:#788B9C;" width="24" height="1"/>
<g>
	<rect x="12.5" y="32.5" style="fill:#DCD5F2;" width="25" height="33"/>
	<g>
		<path style="fill:#8B75A1;" d="M37,33v32H13V33H37 M38,32H12v34h26V32L38,32z"/>
	</g>
</g>
</svg>
