<?xml version="1.0" encoding="iso-8859-1"?>
<!-- Generator: Adobe Illustrator 19.2.1, SVG Export Plug-In . SVG Version: 6.00 Build 0)  -->
<svg xmlns="http://www.w3.org/2000/svg" xmlns:xlink="http://www.w3.org/1999/xlink" version="1.1" id="Layer_1" x="0px" y="0px" viewBox="0 0 80 80" style="enable-background:new 0 0 80 80;" xml:space="preserve" width="80px" height="80px">
<g>
	<rect x="2.5" y="32" style="fill:#F78F8F;" width="23" height="18"/>
	<g>
		<path style="fill:#C74343;" d="M25,32.5v17H3v-17H25 M26,31.5H2v19h24V31.5L26,31.5z"/>
	</g>
</g>
<g>
	<rect x="54.5" y="32" style="fill:#8BB7F0;" width="23" height="18"/>
	<g>
		<path style="fill:#4E7AB5;" d="M77,32.5v17H55v-17H77 M78,31.5H54v19h24V31.5L78,31.5z"/>
	</g>
</g>
<g>
	<rect x="54.5" y="60" style="fill:#8BB7F0;" width="23" height="18"/>
	<g>
		<path style="fill:#4E7AB5;" d="M77,60.5v17H55v-17H77 M78,59.5H54v19h24V59.5L78,59.5z"/>
	</g>
</g>
<g>
	<rect x="54.5" y="4" style="fill:#8BB7F0;" width="23" height="18"/>
	<g>
		<path style="fill:#4E7AB5;" d="M77,4.5v17H55v-17H77 M78,3.5H54v19h24V3.5L78,3.5z"/>
	</g>
</g>
<rect x="39.5" y="27" transform="matrix(1.273293e-10 -1 1 1.273293e-10 -1 81)" style="fill:#66798F;" width="1" height="28"/>
<polygon style="fill:#66798F;" points="54,13.5 54,12.5 38,12.5 38,69.5 54,69.5 54,68.5 39,68.5 39,13.5 "/>
</svg>
