<?xml version="1.0" encoding="iso-8859-1"?>
<!-- Generator: Adobe Illustrator 19.2.1, SVG Export Plug-In . SVG Version: 6.00 Build 0)  -->
<svg xmlns="http://www.w3.org/2000/svg" xmlns:xlink="http://www.w3.org/1999/xlink" version="1.1" id="Layer_1" x="0px" y="0px" viewBox="0 0 80 80" style="enable-background:new 0 0 80 80;" xml:space="preserve" width="40px" height="40px">
<line style="fill:none;stroke:#C74343;stroke-linecap:round;stroke-miterlimit:10;" x1="71.5" y1="77.5" x2="71.5" y2="69.5"/>
<line style="fill:none;stroke:#C74343;stroke-linecap:round;stroke-miterlimit:10;" x1="68.5" y1="76.5" x2="68.5" y2="69.5"/>
<line style="fill:none;stroke:#C74343;stroke-linecap:round;stroke-miterlimit:10;" x1="65.5" y1="77.5" x2="65.5" y2="69.5"/>
<line style="fill:none;stroke:#C74343;stroke-linecap:round;stroke-miterlimit:10;" x1="62.5" y1="76.5" x2="62.5" y2="69.5"/>
<line style="fill:none;stroke:#C74343;stroke-linecap:round;stroke-miterlimit:10;" x1="59.5" y1="77.5" x2="59.5" y2="69.5"/>
<line style="fill:none;stroke:#C74343;stroke-linecap:round;stroke-miterlimit:10;" x1="56.5" y1="76.5" x2="56.5" y2="69.5"/>
<line style="fill:none;stroke:#C74343;stroke-linecap:round;stroke-miterlimit:10;" x1="53.5" y1="77.5" x2="53.5" y2="69.5"/>
<line style="fill:none;stroke:#C74343;stroke-linecap:round;stroke-miterlimit:10;" x1="50.5" y1="76.5" x2="50.5" y2="69.5"/>
<line style="fill:none;stroke:#C74343;stroke-linecap:round;stroke-miterlimit:10;" x1="47.5" y1="77.5" x2="47.5" y2="69.5"/>
<line style="fill:none;stroke:#C74343;stroke-linecap:round;stroke-miterlimit:10;" x1="44.5" y1="76.5" x2="44.5" y2="69.5"/>
<line style="fill:none;stroke:#C74343;stroke-linecap:round;stroke-miterlimit:10;" x1="41.5" y1="77.5" x2="41.5" y2="69.5"/>
<line style="fill:none;stroke:#C74343;stroke-linecap:round;stroke-miterlimit:10;" x1="38.5" y1="76.5" x2="38.5" y2="69.5"/>
<line style="fill:none;stroke:#C74343;stroke-linecap:round;stroke-miterlimit:10;" x1="35.5" y1="77.5" x2="35.5" y2="69.5"/>
<line style="fill:none;stroke:#C74343;stroke-linecap:round;stroke-miterlimit:10;" x1="32.5" y1="76.5" x2="32.5" y2="69.5"/>
<line style="fill:none;stroke:#C74343;stroke-linecap:round;stroke-miterlimit:10;" x1="29.5" y1="77.5" x2="29.5" y2="69.5"/>
<line style="fill:none;stroke:#C74343;stroke-linecap:round;stroke-miterlimit:10;" x1="26.5" y1="76.5" x2="26.5" y2="69.5"/>
<line style="fill:none;stroke:#C74343;stroke-linecap:round;stroke-miterlimit:10;" x1="23.5" y1="77.5" x2="23.5" y2="69.5"/>
<line style="fill:none;stroke:#C74343;stroke-linecap:round;stroke-miterlimit:10;" x1="20.5" y1="76.5" x2="20.5" y2="69.5"/>
<line style="fill:none;stroke:#C74343;stroke-linecap:round;stroke-miterlimit:10;" x1="17.5" y1="77.5" x2="17.5" y2="69.5"/>
<line style="fill:none;stroke:#C74343;stroke-linecap:round;stroke-miterlimit:10;" x1="14.5" y1="76.5" x2="14.5" y2="69.5"/>
<line style="fill:none;stroke:#C74343;stroke-linecap:round;stroke-miterlimit:10;" x1="11.5" y1="77.5" x2="11.5" y2="69.5"/>
<line style="fill:none;stroke:#C74343;stroke-linecap:round;stroke-miterlimit:10;" x1="8.5" y1="76.5" x2="8.5" y2="69.5"/>
<g>
	<rect x="8.5" y="14.5" style="fill:#F78F8F;" width="63" height="59"/>
	<g>
		<path style="fill:#C74343;" d="M71,15v58H9V15H71 M72,14H8v60h64V14L72,14z"/>
	</g>
</g>
<g>
	<rect x="16.5" y="15.833" style="fill:#FFC49C;" width="47" height="49.667"/>
	<g>
		<path style="fill:#C74343;" d="M63,16.333V65H17V16.333H63 M64,15.333H16V66h48V15.333L64,15.333z"/>
	</g>
</g>
<g>
	
		<rect x="34.843" y="40.843" transform="matrix(0.7071 -0.7071 0.7071 0.7071 -20.8112 41.7574)" style="fill:#F78F8F;" width="10.314" height="10.314"/>
	<g>
		<path style="fill:#C74343;" d="M40,39.414L46.586,46L40,52.586L33.414,46L40,39.414 M40,38l-8,8l8,8l8-8L40,38L40,38z"/>
	</g>
</g>
<g>
	<circle style="fill:#F78F8F;" cx="54" cy="36" r="3.5"/>
	<path style="fill:#C74343;" d="M54,33c1.654,0,3,1.346,3,3s-1.346,3-3,3s-3-1.346-3-3S52.346,33,54,33 M54,32c-2.209,0-4,1.791-4,4   s1.791,4,4,4s4-1.791,4-4S56.209,32,54,32L54,32z"/>
</g>
<g>
	<circle style="fill:#F78F8F;" cx="26" cy="36" r="3.5"/>
	<path style="fill:#C74343;" d="M26,33c1.654,0,3,1.346,3,3s-1.346,3-3,3s-3-1.346-3-3S24.346,33,26,33 M26,32c-2.209,0-4,1.791-4,4   s1.791,4,4,4s4-1.791,4-4S28.209,32,26,32L26,32z"/>
</g>
<g>
	<circle style="fill:#F78F8F;" cx="54" cy="56" r="3.5"/>
	<path style="fill:#C74343;" d="M54,53c1.654,0,3,1.346,3,3s-1.346,3-3,3s-3-1.346-3-3S52.346,53,54,53 M54,52c-2.209,0-4,1.791-4,4   s1.791,4,4,4s4-1.791,4-4S56.209,52,54,52L54,52z"/>
</g>
<g>
	<circle style="fill:#F78F8F;" cx="26" cy="56" r="3.5"/>
	<path style="fill:#C74343;" d="M26,53c1.654,0,3,1.346,3,3s-1.346,3-3,3s-3-1.346-3-3S24.346,53,26,53 M26,52c-2.209,0-4,1.791-4,4   s1.791,4,4,4s4-1.791,4-4S28.209,52,26,52L26,52z"/>
</g>
<g>
	<path style="fill:#F78F8F;" d="M40,31.5c-5.238,0-9.5-4.262-9.5-9.5s4.262-9.5,9.5-9.5s9.5,4.262,9.5,9.5S45.238,31.5,40,31.5z"/>
	<path style="fill:#C74343;" d="M40,13c4.963,0,9,4.037,9,9s-4.037,9-9,9s-9-4.037-9-9S35.037,13,40,13 M40,12   c-5.523,0-10,4.477-10,10s4.477,10,10,10s10-4.477,10-10S45.523,12,40,12L40,12z"/>
</g>
<g>
	<g>
		<path style="fill:#FFC49C;" d="M8,21.5c-3.033,0-5.5-4.262-5.5-9.5S4.967,2.5,8,2.5h64c3.032,0,5.5,4.262,5.5,9.5    s-2.468,9.5-5.5,9.5H8z"/>
	</g>
	<g>
		<path style="fill:#A16A4A;" d="M72,3c2.71,0,5,4.121,5,9s-2.29,9-5,9H8c-2.71,0-5-4.121-5-9s2.29-9,5-9H72 M72,2H8    C4.686,2,2,6.477,2,12c0,5.523,2.686,10,6,10h64c3.314,0,6-4.477,6-10C78,6.477,75.314,2,72,2L72,2z"/>
	</g>
</g>
<path style="fill:#E8B28E;" d="M64.959,3h-1C64.882,5.057,66,8.294,66,12c0,3.706-1.118,6.943-2.041,9h1  C65.882,18.943,67,15.706,67,12C67,8.294,65.882,5.057,64.959,3z"/>
<path style="fill:#E8B28E;" d="M15.041,3h1C15.118,5.057,14,8.294,14,12c0,3.706,1.118,6.943,2.041,9h-1  C14.118,18.943,13,15.706,13,12C13,8.294,14.118,5.057,15.041,3z"/>
</svg>
