<?xml version="1.0" encoding="UTF-8"?>
<svg xmlns="http://www.w3.org/2000/svg" xmlns:xlink="http://www.w3.org/1999/xlink" viewBox="0 0 40 40" version="1.1" width="40px" height="40px">
<g id="surface1">
<path style=" fill:#DFF0FE;" d="M 20 38.5 C 9.800781 38.5 1.5 30.199219 1.5 20 C 1.5 9.800781 9.800781 1.5 20 1.5 C 30.199219 1.5 38.5 9.800781 38.5 20 C 38.5 30.199219 30.199219 38.5 20 38.5 Z "/>
<path style=" fill:#4788C7;" d="M 20 2 C 29.925781 2 38 10.074219 38 20 C 38 29.925781 29.925781 38 20 38 C 10.074219 38 2 29.925781 2 20 C 2 10.074219 10.074219 2 20 2 M 20 1 C 9.507813 1 1 9.507813 1 20 C 1 30.492188 9.507813 39 20 39 C 30.492188 39 39 30.492188 39 20 C 39 9.507813 30.492188 1 20 1 Z "/>
<path style=" fill:#4788C7;" d="M 3.0625 12 L 37 12 L 35.976563 11 L 4.082031 11 Z "/>
<path style=" fill:#4788C7;" d="M 36.9375 28 L 3 28 L 4.023438 29 L 35.917969 29 Z "/>
<path style="fill:none;stroke-width:1;stroke-linecap:round;stroke-linejoin:miter;stroke:#4788C7;stroke-opacity:1;stroke-miterlimit:10;" d="M 31.417969 12.5 C 29.46875 6.027344 25.089844 1.5 20 1.5 C 14.910156 1.5 10.53125 6.027344 8.585938 12.5 "/>
<path style="fill:none;stroke-width:1;stroke-linecap:round;stroke-linejoin:miter;stroke:#4788C7;stroke-opacity:1;stroke-miterlimit:10;" d="M 8.585938 27.5 C 10.53125 33.972656 14.910156 38.5 20 38.5 C 25.089844 38.5 29.46875 33.972656 31.417969 27.5 "/>
<path style="fill:none;stroke-width:1;stroke-linecap:round;stroke-linejoin:miter;stroke:#4788C7;stroke-opacity:1;stroke-miterlimit:10;" d="M 15.90625 27.5 C 16.671875 34.230469 18.402344 38.5 20 38.5 C 21.597656 38.5 23.328125 34.230469 24.09375 27.5 "/>
<path style="fill:none;stroke-width:1;stroke-linecap:round;stroke-linejoin:miter;stroke:#4788C7;stroke-opacity:1;stroke-miterlimit:10;" d="M 24.09375 12.5 C 23.328125 5.769531 21.597656 1.5 20 1.5 C 18.402344 1.5 16.671875 5.769531 15.90625 12.5 "/>
<path style=" fill:#4788C7;" d="M 12.289063 16 L 13.882813 16 L 12.03125 24 L 10.28125 24 L 9.117188 18.867188 C 9.054688 18.601563 9.019531 18.300781 9.003906 17.96875 L 8.984375 17.96875 C 8.957031 18.332031 8.914063 18.632813 8.859375 18.867188 L 7.664063 24 L 5.84375 24 L 4 16 L 5.726563 16 L 6.710938 21.328125 C 6.753906 21.554688 6.785156 21.859375 6.804688 22.242188 L 6.835938 22.242188 C 6.847656 21.957031 6.894531 21.644531 6.976563 21.304688 L 8.246094 16 L 9.9375 16 L 11.085938 21.371094 C 11.128906 21.570313 11.167969 21.855469 11.199219 22.230469 L 11.21875 22.230469 C 11.230469 21.9375 11.265625 21.640625 11.320313 21.339844 Z "/>
<path style=" fill:#4788C7;" d="M 22.378906 21.339844 C 22.324219 21.640625 22.289063 21.9375 22.277344 22.230469 L 22.257813 22.230469 C 22.222656 21.855469 22.1875 21.570313 22.144531 21.371094 L 20.996094 16 L 19.304688 16 L 18.035156 21.304688 C 17.953125 21.644531 17.90625 21.957031 17.894531 22.242188 L 17.863281 22.242188 C 17.84375 21.859375 17.8125 21.554688 17.769531 21.328125 L 16.785156 16 L 15.058594 16 L 16.902344 24 L 18.726563 24 L 19.917969 18.867188 C 19.972656 18.632813 20.015625 18.335938 20.046875 17.96875 L 20.066406 17.96875 C 20.078125 18.300781 20.117188 18.601563 20.179688 18.867188 L 21.339844 24 L 23.089844 24 L 24.941406 16 L 23.347656 16 Z "/>
<path style=" fill:#4788C7;" d="M 34.40625 16 L 33.4375 21.339844 C 33.382813 21.640625 33.351563 21.9375 33.335938 22.230469 L 33.316406 22.230469 C 33.28125 21.855469 33.246094 21.570313 33.203125 21.371094 L 32.054688 16 L 30.363281 16 L 29.09375 21.304688 C 29.011719 21.644531 28.964844 21.957031 28.953125 22.242188 L 28.921875 22.242188 C 28.902344 21.859375 28.871094 21.554688 28.828125 21.328125 L 27.84375 16 L 26.117188 16 L 27.960938 24 L 29.785156 24 L 30.976563 18.867188 C 31.03125 18.632813 31.074219 18.335938 31.105469 17.96875 L 31.125 17.96875 C 31.136719 18.300781 31.175781 18.601563 31.234375 18.867188 L 32.398438 24 L 34.148438 24 L 36 16 Z "/>
</g>
</svg>
