<?xml version="1.0" encoding="iso-8859-1"?>
<!-- Generator: Adobe Illustrator 19.1.1, SVG Export Plug-In . SVG Version: 6.00 Build 0)  -->
<svg xmlns="http://www.w3.org/2000/svg" xmlns:xlink="http://www.w3.org/1999/xlink" version="1.1" id="Layer_1" x="0px" y="0px" viewBox="0 0 40 40" style="enable-background:new 0 0 40 40;" xml:space="preserve" width="40px" height="40px">
<g>
	<path style="fill:#8BB7F0;" d="M24.667,37.5c-1.195,0-2.167-0.972-2.167-2.167V24.667c0-1.195,0.972-2.167,2.167-2.167h10.667   c1.195,0,2.167,0.972,2.167,2.167v10.667c0,1.195-0.972,2.167-2.167,2.167H24.667z"/>
	<path style="fill:#4E7AB5;" d="M35.333,23C36.252,23,37,23.748,37,24.667v10.667C37,36.252,36.252,37,35.333,37H24.667   C23.748,37,23,36.252,23,35.333V24.667C23,23.748,23.748,23,24.667,23H35.333 M35.333,22H24.667C23.194,22,22,23.194,22,24.667   v10.667C22,36.806,23.194,38,24.667,38h10.667C36.806,38,38,36.806,38,35.333V24.667C38,23.194,36.806,22,35.333,22L35.333,22z"/>
</g>
<g>
	<path style="fill:#8BB7F0;" d="M36,3c0.551,0,1,0.449,1,1v12c0,0.551-0.449,1-1,1H24c-0.551,0-1-0.449-1-1V4c0-0.551,0.449-1,1-1   H36 M36,2H24c-1.105,0-2,0.895-2,2v12c0,1.105,0.895,2,2,2h12c1.105,0,2-0.895,2-2V4C38,2.895,37.105,2,36,2L36,2z"/>
</g>
<g>
	<path style="fill:#DCD5F2;" d="M4.666,37.5c-1.195,0-2.167-0.972-2.167-2.167V24.667c0-1.195,0.972-2.167,2.167-2.167h10.667   c1.195,0,2.167,0.972,2.167,2.167v10.667c0,1.195-0.972,2.167-2.167,2.167H4.666z"/>
	<path style="fill:#8B75A1;" d="M15.333,23C16.252,23,17,23.748,17,24.667v10.667C17,36.252,16.252,37,15.333,37H4.667   C3.748,37,3,36.252,3,35.333V24.667C3,23.748,3.748,23,4.667,23H15.333 M15.333,22H4.667C3.194,22,2,23.194,2,24.667v10.667   C2,36.806,3.194,38,4.667,38h10.667C16.806,38,18,36.806,18,35.333V24.667C18,23.194,16.806,22,15.333,22L15.333,22z"/>
</g>
<g>
	<circle style="fill:#8B75A1;" cx="10" cy="30" r="1"/>
	<circle style="fill:#8B75A1;" cx="6" cy="34" r="1"/>
	<circle style="fill:#8B75A1;" cx="14" cy="34" r="1"/>
	<circle style="fill:#8B75A1;" cx="6" cy="26" r="1"/>
	<circle style="fill:#8B75A1;" cx="14" cy="26" r="1"/>
</g>
<g>
	<path style="fill:#DCD5F2;" d="M4,17.5c-0.827,0-1.5-0.673-1.5-1.5V4c0-0.827,0.673-1.5,1.5-1.5h12c0.827,0,1.5,0.673,1.5,1.5v12   c0,0.827-0.673,1.5-1.5,1.5H4z"/>
	<path style="fill:#8B75A1;" d="M16,3c0.551,0,1,0.449,1,1v12c0,0.551-0.449,1-1,1H4c-0.551,0-1-0.449-1-1V4c0-0.551,0.449-1,1-1H16    M16,2H4C2.895,2,2,2.895,2,4v12c0,1.105,0.895,2,2,2h12c1.105,0,2-0.895,2-2V4C18,2.895,17.105,2,16,2L16,2z"/>
</g>
<line style="fill:none;stroke:#4E7AB5;stroke-miterlimit:10;" x1="36.667" y1="23.333" x2="23.333" y2="36.667"/>
<line style="fill:none;stroke:#4E7AB5;stroke-miterlimit:10;" x1="33.556" y1="22.667" x2="22.667" y2="33.416"/>
<line style="fill:none;stroke:#4E7AB5;stroke-miterlimit:10;" x1="29.333" y1="22.667" x2="22.479" y2="29.521"/>
<line style="fill:none;stroke:#4E7AB5;stroke-miterlimit:10;" x1="25.333" y1="22.667" x2="22.667" y2="25.333"/>
<line style="fill:none;stroke:#4E7AB5;stroke-miterlimit:10;" x1="26.444" y1="37.333" x2="37.333" y2="26.584"/>
<line style="fill:none;stroke:#4E7AB5;stroke-miterlimit:10;" x1="30.667" y1="37.333" x2="37.521" y2="30.479"/>
<line style="fill:none;stroke:#4E7AB5;stroke-miterlimit:10;" x1="34.667" y1="37.333" x2="37.333" y2="34.667"/>
</svg>
