<?xml version="1.0"?>
<svg xmlns="http://www.w3.org/2000/svg" xmlns:xlink="http://www.w3.org/1999/xlink" version="1.1" viewBox="0 0 252 252" width="48px" height="48px"><g fill="none" fill-rule="nonzero" stroke="none" stroke-width="1" stroke-linecap="butt" stroke-linejoin="miter" stroke-miterlimit="10" stroke-dasharray="" stroke-dashoffset="0" font-family="none" font-weight="none" font-size="none" text-anchor="none" style="mix-blend-mode: normal"><path d="M0,252v-252h252v252z" fill="none"/><g id="Layer_1_1_"><g fill="#000000" font-family="-apple-system, BlinkMacSystemFont, &quot;San Francisco&quot;, HelveticaNeue-Light, &quot;Helvetica Neue Light&quot;, &quot;Helvetica Neue&quot;, &quot;Segoe UI&quot;, &quot;Fira Sans&quot;, Roboto, Oxygen, Ubuntu, &quot;Droid Sans&quot;, Arial, sans-serif" font-weight="300" font-size="16" text-anchor="start"/><path d="M220.5,68.25c-7.2555,0 -11.8755,-14.29575 -20.52225,-9.51825c-3.73275,2.058 -5.72775,6.29475 -5.72775,10.5525v24.1815c0,4.263 1.995,8.4945 5.72775,10.5525c8.64675,4.7775 13.26675,-9.51825 20.52225,-9.51825v26.25c0,2.898 -2.352,5.25 -5.25,5.25h-51.177l-20.0655,20.0655c-1.24425,1.24425 -3.2655,1.24425 -4.50975,0l-20.07075,-20.0655h-30.177c-8.69925,0 -15.75,7.05075 -15.75,15.75v15.75c0,8.69925 7.05075,15.75 15.75,15.75h63c2.898,0 5.25,2.352 5.25,5.25v31.5c0,2.898 -2.352,5.25 -5.25,5.25h-40.677l-20.0655,20.0655c-1.24425,1.24425 -3.2655,1.24425 -4.50975,0l-20.0655,-20.0655h-19.68225c-8.69925,0 -15.75,-7.05075 -15.75,-15.75v-147c0,-8.69925 7.05075,-15.75 15.75,-15.75h14.43225l20.0655,20.0655c1.24425,1.24425 3.2655,1.24425 4.50975,0l20.0655,-20.0655h108.927c2.898,0 5.25,2.352 5.25,5.25z" fill="#2e7d32"/></g></g></svg>
