<?xml version="1.0" encoding="iso-8859-1"?>
<!-- Generator: Adobe Illustrator 19.2.1, SVG Export Plug-In . SVG Version: 6.00 Build 0)  -->
<svg xmlns="http://www.w3.org/2000/svg" xmlns:xlink="http://www.w3.org/1999/xlink" version="1.1" id="Layer_1" x="0px" y="0px" viewBox="0 0 80 80" style="enable-background:new 0 0 80 80;" xml:space="preserve" width="16px" height="16px">
<g>
	<path style="fill:#FFEEA3;" d="M40,76.5C19.322,76.5,2.5,59.678,2.5,39S19.322,1.5,40,1.5S77.5,18.322,77.5,39S60.678,76.5,40,76.5   z"/>
	<g>
		<path style="fill:#BA9B48;" d="M40,2c20.402,0,37,16.598,37,37S60.402,76,40,76S3,59.402,3,39S19.598,2,40,2 M40,1    C19.013,1,2,18.013,2,39s17.013,38,38,38s38-17.013,38-38S60.987,1,40,1L40,1z"/>
	</g>
</g>
<g>
	<path style="fill:#F78F8F;" d="M2.51,39.5C2.503,39.334,2.5,39.167,2.5,39c0-20.511,16.551-37.229,37-37.497V39.5H2.51z"/>
	<g>
		<path style="fill:#C74343;" d="M39,2.013V39H3C3,18.933,19.059,2.546,39,2.013 M40,1C19.013,1,2,18.013,2,39    c0,0.336,0.014,0.669,0.033,1H40V1L40,1z"/>
	</g>
</g>
<g>
	<path style="fill:#FFC49C;" d="M40,76.5c-20.511,0-37.229-16.552-37.497-37h37.292l26.638,26.099   C59.361,72.633,49.994,76.5,40,76.5z"/>
	<g>
		<path style="fill:#A16A4A;" d="M39.592,40L65.72,65.599C58.785,72.314,49.691,76,40,76C19.933,76,3.546,59.941,3.013,40H39.592     M40,39H2c0,20.987,17.013,38,38,38c10.633,0,20.246-4.367,27.143-11.406L40,39L40,39z"/>
	</g>
</g>
<g>
	<path style="fill:#F78F8F;" d="M58.125,1.665c8.45,3.593,15.028,10.217,18.56,18.704c0.26,0.626,0.481,1.275,0.693,1.908   L46.274,35.217L58.125,1.665z"/>
	<g>
		<path style="fill:#C74343;" d="M58.418,2.337c8.093,3.586,14.393,10.023,17.805,18.224c0.196,0.472,0.366,0.946,0.532,1.435    L47.12,34.324L58.418,2.337 M57.83,1L45.429,36.111L78,22.561c-0.267-0.797-0.526-1.596-0.854-2.384    C73.373,11.105,66.261,4.44,57.83,1L57.83,1z"/>
	</g>
</g>
</svg>
