<?xml version="1.0" encoding="iso-8859-1"?>
<!-- Generator: Adobe Illustrator 19.1.1, SVG Export Plug-In . SVG Version: 6.00 Build 0)  -->
<svg xmlns="http://www.w3.org/2000/svg" xmlns:xlink="http://www.w3.org/1999/xlink" version="1.1" id="Layer_1" x="0px" y="0px" viewBox="0 0 80 80" style="enable-background:new 0 0 80 80;" xml:space="preserve" width="80px" height="80px">
<g>
	<polygon style="fill:#FFC49C;" points="6.5,73.5 6.5,6.5 73.5,6.5 73.5,56.793 56.793,73.5  "/>
	<g>
		<path style="fill:#B08159;" d="M73,7v49.586L56.586,73H7V7H73 M74,6H6v68h51l17-17V6L74,6z"/>
	</g>
</g>
<rect x="16" y="18" style="fill:#A16A4A;" width="48" height="1"/>
<rect x="16" y="26" style="fill:#A16A4A;" width="48" height="1"/>
<rect x="16" y="34" style="fill:#A16A4A;" width="24" height="1"/>
<g>
	<polygon style="fill:#FFE2D2;" points="56.5,73.5 56.5,56.5 73.5,56.5 73.5,56.793 56.793,73.5  "/>
	<g>
		<path style="fill:#B08159;" d="M72.586,57L57,72.586V57H72.586 M74,56H56v18h1l17-17V56L74,56z"/>
	</g>
</g>
</svg>
