<?xml version="1.0" standalone="no"?>
<svg xmlns="http://www.w3.org/2000/svg" version="1.1" viewBox="-10 -10 291 291" width="271" height="271">
    <g transform="translate(20,20)">
		<path style="fill:rgb(36, 71, 124)" d="M 0,0 l 11,0 0,11 -11,0 z M 11,0 l 11,0 0,11 -11,0 z M 22,0 l 11,0 0,11 -11,0 z M 33,0 l 11,0 0,11 -11,0 z M 44,0 l 11,0 0,11 -11,0 z M 55,0 l 11,0 0,11 -11,0 z M 66,0 l 11,0 0,11 -11,0 z M 110,0 l 11,0 0,11 -11,0 z M 121,0 l 11,0 0,11 -11,0 z M 132,0 l 11,0 0,11 -11,0 z M 154,0 l 11,0 0,11 -11,0 z M 165,0 l 11,0 0,11 -11,0 z M 176,0 l 11,0 0,11 -11,0 z M 187,0 l 11,0 0,11 -11,0 z M 198,0 l 11,0 0,11 -11,0 z M 209,0 l 11,0 0,11 -11,0 z M 220,0 l 11,0 0,11 -11,0 z M 0,11 l 11,0 0,11 -11,0 z M 66,11 l 11,0 0,11 -11,0 z M 88,11 l 11,0 0,11 -11,0 z M 99,11 l 11,0 0,11 -11,0 z M 110,11 l 11,0 0,11 -11,0 z M 132,11 l 11,0 0,11 -11,0 z M 154,11 l 11,0 0,11 -11,0 z M 220,11 l 11,0 0,11 -11,0 z M 0,22 l 11,0 0,11 -11,0 z M 22,22 l 11,0 0,11 -11,0 z M 33,22 l 11,0 0,11 -11,0 z M 44,22 l 11,0 0,11 -11,0 z M 66,22 l 11,0 0,11 -11,0 z M 110,22 l 11,0 0,11 -11,0 z M 121,22 l 11,0 0,11 -11,0 z M 132,22 l 11,0 0,11 -11,0 z M 154,22 l 11,0 0,11 -11,0 z M 176,22 l 11,0 0,11 -11,0 z M 187,22 l 11,0 0,11 -11,0 z M 198,22 l 11,0 0,11 -11,0 z M 220,22 l 11,0 0,11 -11,0 z M 0,33 l 11,0 0,11 -11,0 z M 22,33 l 11,0 0,11 -11,0 z M 33,33 l 11,0 0,11 -11,0 z M 44,33 l 11,0 0,11 -11,0 z M 66,33 l 11,0 0,11 -11,0 z M 88,33 l 11,0 0,11 -11,0 z M 99,33 l 11,0 0,11 -11,0 z M 132,33 l 11,0 0,11 -11,0 z M 154,33 l 11,0 0,11 -11,0 z M 176,33 l 11,0 0,11 -11,0 z M 187,33 l 11,0 0,11 -11,0 z M 198,33 l 11,0 0,11 -11,0 z M 220,33 l 11,0 0,11 -11,0 z M 0,44 l 11,0 0,11 -11,0 z M 22,44 l 11,0 0,11 -11,0 z M 33,44 l 11,0 0,11 -11,0 z M 44,44 l 11,0 0,11 -11,0 z M 66,44 l 11,0 0,11 -11,0 z M 99,44 l 11,0 0,11 -11,0 z M 132,44 l 11,0 0,11 -11,0 z M 154,44 l 11,0 0,11 -11,0 z M 176,44 l 11,0 0,11 -11,0 z M 187,44 l 11,0 0,11 -11,0 z M 198,44 l 11,0 0,11 -11,0 z M 220,44 l 11,0 0,11 -11,0 z M 0,55 l 11,0 0,11 -11,0 z M 66,55 l 11,0 0,11 -11,0 z M 88,55 l 11,0 0,11 -11,0 z M 121,55 l 11,0 0,11 -11,0 z M 154,55 l 11,0 0,11 -11,0 z M 220,55 l 11,0 0,11 -11,0 z M 0,66 l 11,0 0,11 -11,0 z M 11,66 l 11,0 0,11 -11,0 z M 22,66 l 11,0 0,11 -11,0 z M 33,66 l 11,0 0,11 -11,0 z M 44,66 l 11,0 0,11 -11,0 z M 55,66 l 11,0 0,11 -11,0 z M 66,66 l 11,0 0,11 -11,0 z M 88,66 l 11,0 0,11 -11,0 z M 110,66 l 11,0 0,11 -11,0 z M 132,66 l 11,0 0,11 -11,0 z M 154,66 l 11,0 0,11 -11,0 z M 165,66 l 11,0 0,11 -11,0 z M 176,66 l 11,0 0,11 -11,0 z M 187,66 l 11,0 0,11 -11,0 z M 198,66 l 11,0 0,11 -11,0 z M 209,66 l 11,0 0,11 -11,0 z M 220,66 l 11,0 0,11 -11,0 z M 99,77 l 11,0 0,11 -11,0 z M 0,88 l 11,0 0,11 -11,0 z M 11,88 l 11,0 0,11 -11,0 z M 22,88 l 11,0 0,11 -11,0 z M 33,88 l 11,0 0,11 -11,0 z M 44,88 l 11,0 0,11 -11,0 z M 66,88 l 11,0 0,11 -11,0 z M 77,88 l 11,0 0,11 -11,0 z M 88,88 l 11,0 0,11 -11,0 z M 121,88 l 11,0 0,11 -11,0 z M 143,88 l 11,0 0,11 -11,0 z M 165,88 l 11,0 0,11 -11,0 z M 187,88 l 11,0 0,11 -11,0 z M 209,88 l 11,0 0,11 -11,0 z M 11,99 l 11,0 0,11 -11,0 z M 33,99 l 11,0 0,11 -11,0 z M 55,99 l 11,0 0,11 -11,0 z M 77,99 l 11,0 0,11 -11,0 z M 121,99 l 11,0 0,11 -11,0 z M 132,99 l 11,0 0,11 -11,0 z M 143,99 l 11,0 0,11 -11,0 z M 154,99 l 11,0 0,11 -11,0 z M 165,99 l 11,0 0,11 -11,0 z M 187,99 l 11,0 0,11 -11,0 z M 198,99 l 11,0 0,11 -11,0 z M 209,99 l 11,0 0,11 -11,0 z M 220,99 l 11,0 0,11 -11,0 z M 0,110 l 11,0 0,11 -11,0 z M 22,110 l 11,0 0,11 -11,0 z M 33,110 l 11,0 0,11 -11,0 z M 66,110 l 11,0 0,11 -11,0 z M 77,110 l 11,0 0,11 -11,0 z M 88,110 l 11,0 0,11 -11,0 z M 99,110 l 11,0 0,11 -11,0 z M 132,110 l 11,0 0,11 -11,0 z M 154,110 l 11,0 0,11 -11,0 z M 165,110 l 11,0 0,11 -11,0 z M 209,110 l 11,0 0,11 -11,0 z M 33,121 l 11,0 0,11 -11,0 z M 77,121 l 11,0 0,11 -11,0 z M 88,121 l 11,0 0,11 -11,0 z M 121,121 l 11,0 0,11 -11,0 z M 132,121 l 11,0 0,11 -11,0 z M 143,121 l 11,0 0,11 -11,0 z M 154,121 l 11,0 0,11 -11,0 z M 187,121 l 11,0 0,11 -11,0 z M 198,121 l 11,0 0,11 -11,0 z M 209,121 l 11,0 0,11 -11,0 z M 0,132 l 11,0 0,11 -11,0 z M 11,132 l 11,0 0,11 -11,0 z M 22,132 l 11,0 0,11 -11,0 z M 33,132 l 11,0 0,11 -11,0 z M 66,132 l 11,0 0,11 -11,0 z M 77,132 l 11,0 0,11 -11,0 z M 132,132 l 11,0 0,11 -11,0 z M 176,132 l 11,0 0,11 -11,0 z M 88,143 l 11,0 0,11 -11,0 z M 99,143 l 11,0 0,11 -11,0 z M 132,143 l 11,0 0,11 -11,0 z M 165,143 l 11,0 0,11 -11,0 z M 176,143 l 11,0 0,11 -11,0 z M 187,143 l 11,0 0,11 -11,0 z M 220,143 l 11,0 0,11 -11,0 z M 0,154 l 11,0 0,11 -11,0 z M 11,154 l 11,0 0,11 -11,0 z M 22,154 l 11,0 0,11 -11,0 z M 33,154 l 11,0 0,11 -11,0 z M 44,154 l 11,0 0,11 -11,0 z M 55,154 l 11,0 0,11 -11,0 z M 66,154 l 11,0 0,11 -11,0 z M 88,154 l 11,0 0,11 -11,0 z M 110,154 l 11,0 0,11 -11,0 z M 121,154 l 11,0 0,11 -11,0 z M 143,154 l 11,0 0,11 -11,0 z M 187,154 l 11,0 0,11 -11,0 z M 209,154 l 11,0 0,11 -11,0 z M 0,165 l 11,0 0,11 -11,0 z M 66,165 l 11,0 0,11 -11,0 z M 99,165 l 11,0 0,11 -11,0 z M 110,165 l 11,0 0,11 -11,0 z M 187,165 l 11,0 0,11 -11,0 z M 198,165 l 11,0 0,11 -11,0 z M 209,165 l 11,0 0,11 -11,0 z M 220,165 l 11,0 0,11 -11,0 z M 0,176 l 11,0 0,11 -11,0 z M 22,176 l 11,0 0,11 -11,0 z M 33,176 l 11,0 0,11 -11,0 z M 44,176 l 11,0 0,11 -11,0 z M 66,176 l 11,0 0,11 -11,0 z M 88,176 l 11,0 0,11 -11,0 z M 110,176 l 11,0 0,11 -11,0 z M 121,176 l 11,0 0,11 -11,0 z M 143,176 l 11,0 0,11 -11,0 z M 187,176 l 11,0 0,11 -11,0 z M 209,176 l 11,0 0,11 -11,0 z M 0,187 l 11,0 0,11 -11,0 z M 22,187 l 11,0 0,11 -11,0 z M 33,187 l 11,0 0,11 -11,0 z M 44,187 l 11,0 0,11 -11,0 z M 66,187 l 11,0 0,11 -11,0 z M 88,187 l 11,0 0,11 -11,0 z M 121,187 l 11,0 0,11 -11,0 z M 132,187 l 11,0 0,11 -11,0 z M 143,187 l 11,0 0,11 -11,0 z M 154,187 l 11,0 0,11 -11,0 z M 176,187 l 11,0 0,11 -11,0 z M 198,187 l 11,0 0,11 -11,0 z M 0,198 l 11,0 0,11 -11,0 z M 22,198 l 11,0 0,11 -11,0 z M 33,198 l 11,0 0,11 -11,0 z M 44,198 l 11,0 0,11 -11,0 z M 66,198 l 11,0 0,11 -11,0 z M 88,198 l 11,0 0,11 -11,0 z M 110,198 l 11,0 0,11 -11,0 z M 132,198 l 11,0 0,11 -11,0 z M 154,198 l 11,0 0,11 -11,0 z M 0,209 l 11,0 0,11 -11,0 z M 66,209 l 11,0 0,11 -11,0 z M 88,209 l 11,0 0,11 -11,0 z M 99,209 l 11,0 0,11 -11,0 z M 110,209 l 11,0 0,11 -11,0 z M 121,209 l 11,0 0,11 -11,0 z M 132,209 l 11,0 0,11 -11,0 z M 143,209 l 11,0 0,11 -11,0 z M 154,209 l 11,0 0,11 -11,0 z M 187,209 l 11,0 0,11 -11,0 z M 198,209 l 11,0 0,11 -11,0 z M 0,220 l 11,0 0,11 -11,0 z M 11,220 l 11,0 0,11 -11,0 z M 22,220 l 11,0 0,11 -11,0 z M 33,220 l 11,0 0,11 -11,0 z M 44,220 l 11,0 0,11 -11,0 z M 55,220 l 11,0 0,11 -11,0 z M 66,220 l 11,0 0,11 -11,0 z M 88,220 l 11,0 0,11 -11,0 z M 110,220 l 11,0 0,11 -11,0 z M 132,220 l 11,0 0,11 -11,0 z M 165,220 l 11,0 0,11 -11,0 z M 176,220 l 11,0 0,11 -11,0 z M 209,220 l 11,0 0,11 -11,0 z " />
    </g>
	<path d="M25 5 a 20 20, 0, 0, 0, -20 20" fill="none" stroke="#c00" stroke-opacity="0.5" stroke-width="10" stroke-linecap="square"/>
	<path d="M266 25 a 20 20, 0, 0, 0, -20 -20" fill="none" stroke="#c00" stroke-opacity="0.5" stroke-width="10" stroke-linecap="square"/>
	<path d="M5 246 a 20 20, 0, 0, 0, 20 20" fill="none" stroke="#c00" stroke-opacity="0.5" stroke-width="10" stroke-linecap="square"/>
	<path d="M246 266 a 20 20, 0, 0, 0, 20 -20" fill="none" stroke="#c00" stroke-opacity="0.5" stroke-width="10" stroke-linecap="square"/>
	<line x1="15" x2="256" y1="135" y2="135" stroke="#c00" stroke-opacity="0.5" stroke-width="10" stroke-linecap="round"/>
</svg>
