<?xml version="1.0" encoding="utf-8"?>
<!-- Generator: Adobe Illustrator 19.2.0, SVG Export Plug-In . SVG Version: 6.00 Build 0)  -->
<svg xmlns="http://www.w3.org/2000/svg" xmlns:xlink="http://www.w3.org/1999/xlink" version="1.1" id="Layer_1" x="0px" y="0px" viewBox="0 0 80 80" enable-background="new 0 0 80 80" xml:space="preserve" width="80px" height="80px">
<g>
	<rect x="2.5" y="26.5" fill="#8BB7F0" width="51" height="51"/>
	<path fill="#788B9C" d="M53,27v50H3V27H53 M54,26H2v52h52V26L54,26z"/>
</g>
<polygon fill="#66798F" points="70,52 70,38 78,38 67,26 56,38 64,38 64,52 64,66 56,66 67,78 78,66 70,66 "/>
<polygon fill="#66798F" points="54,13 42,2 42,10 28,10 14,10 14,2 2,13 14,24 14,16 28,16 42,16 42,24 "/>
</svg>
