<svg version="1.1" id="Layer_1" xmlns="http://www.w3.org/2000/svg" xmlns:xlink="http://www.w3.org/1999/xlink" x="0px" y="0px" viewBox="0 0 40 40" style="enable-background:new 0 0 40 40;" xml:space="preserve" width="50" height="50">
<g>
	<g>
		<polygon style="fill:#FFEEA3;" points="14.006,33.475 1.5,37.323 1.5,6.37 14.024,2.535 25.994,6.525 38.5,2.677 38.5,33.631 &#10;&#9;&#9;&#9;26.006,37.475 &#9;&#9;"/>
	</g>
	<g>
		<path style="fill:#BA9B48;" d="M14.017,3.06l11.667,3.889l0.304,0.101l0.306-0.094L38,3.354v29.907L26.012,36.95l-11.696-3.899&#10;&#9;&#9;&#9;l-0.304-0.101l-0.306,0.094L2,36.646V6.74L14.017,3.06 M39,2L26,6L14.062,2.021l0-0.021L14.03,2.01L14,2v0.019L1,6v32l13-4l12,4&#10;&#9;&#9;&#9;l13-4V2L39,2z"/>
	</g>
</g>
<path style="fill:#FFFFFF;" d="M26,37l-12-4V3l12,4V37z"/>
<g>
	<path style="fill:#BA9B48;" d="M14.598,20.06c-0.633-0.134-1.319-0.046-1.916-0.34c-0.28-0.14-0.519-0.331-0.807-0.463&#10;&#9;&#9;c-0.192-0.087-0.485-0.165-0.754-0.262c-0.291-0.602-0.433-1.227-0.71-1.824c-0.17-0.368-0.742-1.332,0.128-1.357&#10;&#9;&#9;c0.262-0.006,1.131,0.267,1.254,0.447c0.323,0.486-0.307,1.607,0.355,1.746c1.107,0.232,2.343-1.641,2.326-2.511&#10;&#9;&#9;c-0.002-0.159-0.129-0.217-0.145-0.365c-0.06-0.585,0.291-0.966,0.024-1.55c-0.177-0.39-0.356-0.702-0.334-1.133&#10;&#9;&#9;c0.05-1.009,0.292-1.998,0.279-3.023c-0.003-0.3-0.091-0.475-0.235-0.561c-0.702-0.419-2.742,1.333-2.818,1.257&#10;&#9;&#9;c-1.285-1.298-3.577-1.98-5.115-0.599c-0.422,0.381-1.261,0.83-1.111,1.463c0.149,0.636,0.403,0.624,0.93,0.332&#10;&#9;&#9;c0.497-0.276,1.076-0.462,1.632-0.104c0.599,0.381,0.136,0.987-0.193,1.397c-0.471,0.591-0.775,1.084-0.998,1.768&#10;&#9;&#9;c-0.189,0.578-0.287,1.231,0.114,1.759c0.409,0.539,1.272,0.553,1.584,1.036c0.328,0.51,0.376,1.214,1.007,1.504&#10;&#9;&#9;c0.426,0.198,0.858-0.019,1.35,0.187c0.16,0.066,0.304,0.144,0.442,0.227c0.222,0.356,0.365,0.778,0.357,1.187&#10;&#9;&#9;c-0.011,0.591-0.354,0.668-0.796,0.944c-0.624,0.389-1.885,1.121-1.726,2.039c0.125,0.719,0.94,0.279,1.161,0.834&#10;&#9;&#9;c0.175,0.441-0.313,1.033-0.332,1.448c1.171,0.269,1.839,1.246,1.834,2.446c-0.009,1.725,0.262,3.007,1.601,4.011&#10;&#9;&#9;c0.329-0.056,0.486-0.212,0.531-0.587c0.173-1.465-0.115-2.755,0.983-3.953c0.473-0.516,0.379-0.72,0.342-1.369&#10;&#9;&#9;c-0.019-0.33,0.046-1.119,0.309-1.297c0.33,0.16,0.997,0.249,1.291-0.015c0.194-0.178,0.419-1.177,0.459-1.447&#10;&#9;&#9;c0.129-0.844-0.164-1.518-0.647-2.16C15.855,20.643,15.239,20.194,14.598,20.06z"/>
	<path style="fill:#BA9B48;" d="M17.363,7.069c-1.564-0.391-2.699,0.936-2.233,2.478C15.892,12.076,17.478,8.1,17.363,7.069z"/>
	<path style="fill:#BA9B48;" d="M34.965,12.666c0.105-0.517-0.006-1.121-0.605-1.116c-0.042-0.639-0.461-2.133-1.129-2.467&#10;&#9;&#9;c-0.626-0.319-0.655,0.136-1.164,0.636c-0.562,0.555-1.261,0.913-1.735,1.453c-0.44,0.501-1.342,1.714-1.958,1.235&#10;&#9;&#9;c-0.33-0.259-0.255-1.182-0.501-1.561c-0.327-0.507-0.538-0.598-1.147-0.691c0.066-0.113,0.08-0.394,0.16-0.523&#10;&#9;&#9;c-0.187,0.066-0.517,0.002-0.702,0.067c-0.029-0.79,1.157-0.82,1.429-1.361c-0.518-0.043-0.996-0.06-1.447,0.24&#10;&#9;&#9;c-0.364,0.242-0.449,0.804-0.791,0.971c-0.87,0.435-2.955-1.036-3.911-1.249c-1.383-0.309-2.119,0.284-2.669,1.585&#10;&#9;&#9;c-0.364-0.071-0.797-0.193-1.083,0.107c0.216,0.291,0.539,0.43,0.903,0.482c0.029,0.134,0.032,0.294,0,0.428&#10;&#9;&#9;c-0.303,0.067-1.076,0.577-1.263,0.755c-0.402,0.385-0.461,0.539-0.541,1.114c-0.04,0.297-0.07,0.66-0.05,1.021&#10;&#9;&#9;c0.035,0.674,0.244,1.328,0.871,1.475c0.406,0.094,0.864-0.084,1.111-0.528c0.348-0.628-0.607-2.294,0.469-2.214&#10;&#9;&#9;c0.773,0.058,0.805,1.278,1.044,1.805c0.065,0.032,0.13,0.032,0.196,0c0.177-0.512,0.078-1.1,0.124-1.621&#10;&#9;&#9;c0.909-0.252,1.408,1.117,1.618,1.796c0.174,0.565,0.53,0.754-0.385,0.974c-0.493,0.119-0.851,0.005-1.183-0.4&#10;&#9;&#9;c-0.552,0.381-0.851,0.803-1.452,1.119c-1.692,0.89-2.142,3.501-1.245,5.271c0.615,1.215,2.036,0.109,2.775-0.261&#10;&#9;&#9;c-0.033,0.682,0.56,1.366,0.766,2.005c0.597,1.843,0.167,3.6,0.155,5.492c-0.002,0.381,0.09,1.833,0.567,1.921&#10;&#9;&#9;c0.547,0.1,1.021-1.618,1.141-2.018c0.498-1.652,0.505-3.356,1.405-4.887c0.347-0.593,0.978-1.09,0.689-1.839&#10;&#9;&#9;c-0.291-0.752-1.762-0.898-1.602-1.877c-0.044,0.278,1.463,1.697,1.803,1.734c1.59,0.17,0.09-1.987,0.568-2.532&#10;&#9;&#9;c0.77-0.873,1.332,1.289,1.374,1.7c0.121,1.118-0.109,2.229-0.126,3.346c-0.006,0.467-0.132,2.391,0.728,2.114&#10;&#9;&#9;c0.669-0.216,0.341-1.707,0.431-2.229c0.083-0.484,0.584-2.32,0.992-2.541c0.893-0.479,1.372,1.571,2.469,1.528&#10;&#9;&#9;c0.261-0.948,0.028-1.404,0.741-2.093c0.525-0.508,1.327-0.836,1.638-1.595c0.242-0.586,0.322-1.778,0.154-2.387&#10;&#9;&#9;c-0.318-1.158-1.399-0.695-2.412-0.962c-0.045-0.594,0.562-0.881,0.585-1.499c0.013-0.308-0.466-0.31-0.416-0.7&#10;&#9;&#9;c0.032-0.243,0.39-0.634,0.543-0.837C33.431,12.332,34.187,11.892,34.965,12.666z"/>
	<path style="fill:#BA9B48;" d="M34.052,25.092c-0.213,0.187-0.792,1.113-1,1.175c-0.873,0.265-0.38-0.802-0.152-1.15&#10;&#9;&#9;c-0.833,0.292-1.557,0.996-2.039,1.843l0.03-0.12c-0.036,0.074-0.078,0.18-0.12,0.29c-0.363,0.7-0.567,1.479-0.513,2.21&#10;&#9;&#9;l0.026-0.101c-0.054,0.664,0.028,1.223,0.425,1.304c1.127,0.225,1.592-1.643,2.708-1.369c0.099,0.544,0.507,0.685,0.816,0.239&#10;&#9;&#9;c0.193-0.277-0.023-1.16-0.068-1.459C34.006,26.863,33.797,26.201,34.052,25.092z"/>
</g>
<path style="fill:#DBC567;" d="M15.13,9.547c0.763,2.529,2.348-1.447,2.233-2.478C15.799,6.678,14.664,8.005,15.13,9.547z"/>
<path style="fill:#DBC567;" d="M16.252,21.171c-0.397-0.529-1.013-0.978-1.654-1.111c-0.026-0.005-0.052-0.005-0.078-0.01v7.379&#10;&#9;c0.438-0.491,0.355-0.704,0.319-1.339c-0.019-0.33,0.046-1.119,0.31-1.297c0.33,0.16,0.997,0.249,1.292-0.015&#10;&#9;c0.194-0.178,0.419-1.177,0.459-1.447C17.028,22.488,16.735,21.814,16.252,21.171z"/>
<path style="fill:#DBC567;" d="M26.194,19.206c0.114-0.129,0.222-0.185,0.326-0.196V9.668c-0.124,0-0.247,0.001-0.336,0.032&#10;&#9;c-0.01-0.28,0.136-0.462,0.336-0.608V8.422c-0.12,0.039-0.239,0.08-0.355,0.156c-0.364,0.242-0.449,0.804-0.791,0.971&#10;&#9;c-0.87,0.435-2.955-1.036-3.911-1.249c-1.383-0.309-2.119,0.284-2.669,1.585c-0.364-0.071-0.797-0.193-1.083,0.107&#10;&#9;c0.216,0.291,0.539,0.43,0.903,0.482c0.029,0.134,0.032,0.294,0,0.428c-0.303,0.067-1.076,0.577-1.263,0.755&#10;&#9;c-0.402,0.385-0.461,0.539-0.541,1.114c-0.04,0.297-0.07,0.66-0.05,1.021c0.035,0.674,0.244,1.328,0.871,1.475&#10;&#9;c0.406,0.094,0.864-0.084,1.111-0.528c0.348-0.628-0.607-2.294,0.469-2.214c0.773,0.058,0.805,1.278,1.044,1.805&#10;&#9;c0.065,0.032,0.13,0.032,0.196,0c0.177-0.512,0.078-1.1,0.124-1.621c0.909-0.252,1.408,1.117,1.618,1.796&#10;&#9;c0.174,0.565,0.53,0.754-0.385,0.974c-0.493,0.119-0.851,0.005-1.183-0.4c-0.552,0.381-0.851,0.803-1.452,1.119&#10;&#9;c-1.692,0.89-2.142,3.501-1.245,5.271c0.615,1.215,2.036,0.109,2.776-0.261c-0.033,0.682,0.56,1.366,0.766,2.005&#10;&#9;c0.597,1.843,0.167,3.6,0.155,5.492c-0.002,0.381,0.09,1.833,0.567,1.921c0.547,0.1,1.021-1.618,1.141-2.018&#10;&#9;c0.498-1.652,0.505-3.356,1.405-4.887c0.347-0.593,0.978-1.09,0.689-1.839c-0.291-0.752-1.762-0.898-1.602-1.877&#10;&#9;c-0.044,0.278,1.463,1.698,1.803,1.734C27.216,21.908,25.716,19.751,26.194,19.206z"/>
</svg>