<?xml version="1.0" encoding="UTF-8"?>
<svg xmlns="http://www.w3.org/2000/svg" xmlns:xlink="http://www.w3.org/1999/xlink" viewBox="0 0 24 24" version="1.1" width="24px" height="24px">
<g id="surface1">
<path style=" " d="M 5 3 C 4.476563 3 3.941406 3.183594 3.5625 3.5625 C 3.183594 3.941406 3 4.476563 3 5 L 3 19 C 3 19.523438 3.183594 20.058594 3.5625 20.4375 C 3.941406 20.816406 4.476563 21 5 21 L 19 21 C 19.523438 21 20.058594 20.816406 20.4375 20.4375 C 20.816406 20.058594 21 19.523438 21 19 L 21 5 C 21 4.476563 20.816406 3.941406 20.4375 3.5625 C 20.058594 3.183594 19.523438 3 19 3 Z M 5 5 L 19 5 L 19 19 L 5 19 Z M 13.09375 7.3125 L 9.3125 8.6875 L 9.3125 10.1875 L 11.5 9.5 L 11.5 16.59375 L 13.3125 16.59375 L 13.3125 7.3125 Z "/>
</g>
</svg>
