<?xml version="1.0" encoding="UTF-8"?>
<svg xmlns="http://www.w3.org/2000/svg" xmlns:xlink="http://www.w3.org/1999/xlink" viewBox="0 0 24 24" version="1.1" width="24px" height="24px">
<g id="surface1">
<path style=" " d="M 12 2 C 8.894531 2 6 4.636719 6 8 L 6 9 C 4.898438 9 4 9.898438 4 11 L 4 20 C 4 21.101563 4.898438 22 6 22 L 18 22 C 19.101563 22 20 21.101563 20 20 L 20 11 C 20 9.898438 19.101563 9 18 9 L 18 8 C 18 4.636719 15.105469 2 12 2 Z M 12 4 C 13.914063 4 16 5.839844 16 8 L 16 9 L 8 9 L 8 8 C 8 5.839844 10.085938 4 12 4 Z M 7.5 14 C 8.300781 14 9 14.699219 9 15.5 C 9 16.300781 8.300781 17 7.5 17 C 6.699219 17 6 16.300781 6 15.5 C 6 14.699219 6.699219 14 7.5 14 Z M 12 14 C 12.800781 14 13.5 14.699219 13.5 15.5 C 13.5 16.300781 12.800781 17 12 17 C 11.199219 17 10.5 16.300781 10.5 15.5 C 10.5 14.699219 11.199219 14 12 14 Z M 16.5 14 C 17.300781 14 18 14.699219 18 15.5 C 18 16.300781 17.300781 17 16.5 17 C 15.699219 17 15 16.300781 15 15.5 C 15 14.699219 15.699219 14 16.5 14 Z "/>
</g>
</svg>
