<svg xmlns="http://www.w3.org/2000/svg" xmlns:xlink="http://www.w3.org/1999/xlink" viewBox="0 0 24 24" version="1.1" width="48" height="48">
<g id="surface1">
<path style=" " d="M 5 2 L 5 5 L 3 5 L 3 7 L 7 7 L 7 8 L 5 8 L 5 10 L 3 10 L 3 12 L 7 12 L 7 13 L 5 13 L 5 15 L 3 15 L 3 17 L 7 17 L 7 18 L 5 18 L 5 22 L 19 22 C 20.105469 22 21 21.105469 21 20 L 21 4 C 21 2.894531 20.105469 2 19 2 Z M 14 6 C 16.765625 6 19 8.234375 19 11 C 19 12.65625 18.105469 14 17 14 L 14 14 C 13.292969 14 12.011719 14 12 12 L 12 11 C 12 9.023438 13.292969 9.003906 14 9 C 14.5 8.996094 16 9 16 9 L 16 13 L 17 13 C 17.554688 13 18 12.105469 18 11 C 18 8.789063 16.210938 7 14 7 C 11.789063 7 9.96875 8.625 10 11 L 10 12 C 10 14.765625 11.789063 16 14 16 L 17 16 L 17 17 L 14 17 C 11.234375 17 9 15.316406 9 12 L 9 11 C 9.03125 8.03125 11.234375 6 14 6 Z M 14 10 C 14 10 13 10.015625 13 11.5 C 13 12.992188 14 13 14 13 L 15 13 L 15 10 Z "/>
</g>
</svg>