<svg xmlns="http://www.w3.org/2000/svg" viewBox="0 0 24 24" enable-background="new 0 0 24 24" width="48" height="48">
    <path style="text-indent:0;text-align:start;line-height:normal;text-transform:none;block-progression:tb;-inkscape-font-specification:Bitstream Vera Sans" d="M 10 3 C 9.4777778 3 8.9395305 3.1854695 8.5625 3.5625 C 8.1854695 3.9395305 8 4.4777778 8 5 L 8 6 L 5 6 C 3.3545455 6 2 7.3545455 2 9 L 2 14 L 2 19 C 2 20.1 2.9 21 4 21 L 20 21 C 21.1 21 22 20.1 22 19 L 22 14 L 22 9 C 22 7.3545455 20.645455 6 19 6 L 16 6 L 16 5 C 16 4.4777778 15.814531 3.9395305 15.4375 3.5625 C 15.060469 3.1854695 14.522222 3 14 3 L 10 3 z M 10 5 L 14 5 L 14 6 L 10 6 L 10 5 z M 5 8 L 19 8 C 19.554545 8 20 8.4454545 20 9 L 20 14 C 20 14.554545 19.554545 15 19 15 L 5 15 C 4.4454545 15 4 14.554545 4 14 L 4 9 C 4 8.4454545 4.4454545 8 5 8 z M 12 12 C 11.447715 12 11 12.447715 11 13 C 11 13.552285 11.447715 14 12 14 C 12.552285 14 13 13.552285 13 13 C 13 12.447715 12.552285 12 12 12 z" overflow="visible" enable-background="accumulate" font-family="Bitstream Vera Sans"/>
</svg>