<svg xmlns="http://www.w3.org/2000/svg" xmlns:xlink="http://www.w3.org/1999/xlink" viewBox="0 0 32 32" version="1.1" width="64" height="64">
<g id="surface1">
<path style=" " d="M 9 4 C 7.355469 4 6 5.355469 6 7 L 6 25 C 6 26.644531 7.355469 28 9 28 L 26 28 L 26 4 Z M 9 6 L 24 6 L 24 22 L 9 22 C 8.648438 22 8.316406 22.074219 8 22.1875 L 8 7 C 8 6.433594 8.433594 6 9 6 Z M 12.210938 10 L 10 15.816406 L 10 18 L 12 18 L 12 17 L 14 17 L 14 18 L 16 18 L 16 15.808594 L 13.675781 10 Z M 19.5 12 C 18.128906 12 17 13.128906 17 14.5 L 17 15.5 C 17 16.871094 18.128906 18 19.5 18 C 20.0625 18 20.578125 17.804688 20.996094 17.484375 C 21.496094 17.820313 22.179688 18 23 18 L 23 16 C 22.269531 16 22.109375 15.835938 22.066406 15.792969 C 22.023438 15.746094 22 15.660156 22 15.5 L 22 14.5 C 22 13.128906 20.871094 12 19.5 12 Z M 12.972656 13.625 L 13.523438 15 L 12.449219 15 Z M 19.5 14 C 19.78125 14 20 14.21875 20 14.5 L 20 15.5 C 20 15.78125 19.78125 16 19.5 16 C 19.21875 16 19 15.78125 19 15.5 L 19 14.5 C 19 14.21875 19.21875 14 19.5 14 Z M 9 24 L 24 24 L 24 26 L 9 26 C 8.433594 26 8 25.566406 8 25 C 8 24.433594 8.433594 24 9 24 Z "/>
</g>
</svg>