<?xml version="1.0" encoding="UTF-8"?>
<svg xmlns="http://www.w3.org/2000/svg" xmlns:xlink="http://www.w3.org/1999/xlink" viewBox="0 0 24 24" version="1.1" width="24px" height="24px">
<g id="surface1">
<path style=" " d="M 17 2 C 15.898438 2 15 2.898438 15 4 L 15 5 L 12 5 C 11.96875 5 11.9375 5 11.90625 5 C 11.390625 5.046875 10.996094 5.480469 11 6 L 11 11 L 9 11 L 9 10 C 9 8.898438 8.101563 8 7 8 L 4 8 C 2.898438 8 2 8.898438 2 10 L 2 14 C 2 15.101563 2.898438 16 4 16 L 7 16 C 8.101563 16 9 15.101563 9 14 L 9 13 L 11 13 L 11 18 C 11 18.550781 11.449219 19 12 19 L 15 19 L 15 20 C 15 21.101563 15.898438 22 17 22 L 20 22 C 21.101563 22 22 21.101563 22 20 L 22 16 C 22 14.898438 21.101563 14 20 14 L 17 14 C 15.898438 14 15 14.898438 15 16 L 15 17 L 13 17 L 13 12.1875 C 13.027344 12.054688 13.027344 11.914063 13 11.78125 L 13 7 L 15 7 L 15 8 C 15 9.101563 15.898438 10 17 10 L 20 10 C 21.101563 10 22 9.101563 22 8 L 22 4 C 22 2.898438 21.101563 2 20 2 Z "/>
</g>
</svg>
