<?xml version="1.0" encoding="UTF-8"?>
<svg xmlns="http://www.w3.org/2000/svg" xmlns:xlink="http://www.w3.org/1999/xlink" viewBox="0 0 24 24" version="1.1" width="24px" height="24px">
<g id="surface1">
<path style=" " d="M 5 10 C 3.894531 10 3 10.894531 3 12 C 3 13.105469 3.894531 14 5 14 C 6.105469 14 7 13.105469 7 12 C 7 10.894531 6.105469 10 5 10 Z M 12 10 C 10.894531 10 10 10.894531 10 12 C 10 13.105469 10.894531 14 12 14 C 13.105469 14 14 13.105469 14 12 C 14 10.894531 13.105469 10 12 10 Z M 19 10 C 17.894531 10 17 10.894531 17 12 C 17 13.105469 17.894531 14 19 14 C 20.105469 14 21 13.105469 21 12 C 21 10.894531 20.105469 10 19 10 Z "/>
</g>
</svg>
