<?xml version="1.0"?>
<svg xmlns="http://www.w3.org/2000/svg" viewBox="0 0 16 16" width="16px" height="16px">
    <path style="line-height:normal;text-indent:0;text-align:start;text-decoration-line:none;text-decoration-style:solid;text-decoration-color:#000;text-transform:none;block-progression:tb;isolation:auto;mix-blend-mode:normal" d="M 3.5 1 C 2.6774686 1 2 1.6774686 2 2.5 L 2 12.5 C 2 13.322531 2.6774686 14 3.5 14 L 7 14 L 7 13 L 3.5 13 C 3.2185314 13 3 12.781469 3 12.5 L 3 10 L 5 10 L 5 9 L 3 9 L 3 6 L 5 6 L 5 5 L 3 5 L 3 2.5 C 3 2.2185314 3.2185314 2 3.5 2 L 12.5 2 C 12.781469 2 13 2.2185314 13 2.5 L 13 5 L 6 5 L 6 6 L 13 6 L 13 9 L 6 9 L 6 10 L 13 10 L 13 11 L 14 11 L 14 2.5 C 14 1.6774686 13.322531 1 12.5 1 L 3.5 1 z M 11 11 L 8.5 13.5 L 11 16 L 11 14 L 15.5 14 L 16 14 L 16 13 L 15.5 13 L 11 13 L 11 11 z"/>
</svg>
