<?xml version="1.0" encoding="UTF-8"?>
<svg xmlns="http://www.w3.org/2000/svg" xmlns:xlink="http://www.w3.org/1999/xlink" viewBox="0 0 24 24" version="1.1" width="96px" height="96px">
<g id="surface1">
<path style=" " d="M 3 3 C 2.445313 3 2 4.34375 2 6 C 2 7.65625 2.445313 9 3 9 L 3 18 L 21 18 L 21 9 C 21.554688 9 22 7.65625 22 6 C 22 4.34375 21.554688 3 21 3 Z M 5 9 L 6 9 L 6 15 L 18 15 L 18 9 L 19 9 L 19 16 L 5 16 Z M 8 9 L 16 9 L 16 13 L 8 13 Z M 3 19 L 3 21 C 3 21.550781 3.449219 22 4 22 C 4.550781 22 5 21.550781 5 21 L 5 19 Z M 7 19 L 7 21 C 7 21.550781 7.449219 22 8 22 C 8.550781 22 9 21.550781 9 21 L 9 19 Z M 11 19 L 11 21 C 11 21.550781 11.449219 22 12 22 C 12.550781 22 13 21.550781 13 21 L 13 19 Z M 15 19 L 15 21 C 15 21.550781 15.449219 22 16 22 C 16.550781 22 17 21.550781 17 21 L 17 19 Z M 19 19 L 19 21 C 19 21.550781 19.449219 22 20 22 C 20.550781 22 21 21.550781 21 21 L 21 19 Z "/>
</g>
</svg>
