<?xml version="1.0" encoding="UTF-8"?>
<svg xmlns="http://www.w3.org/2000/svg" xmlns:xlink="http://www.w3.org/1999/xlink" viewBox="0 0 24 24" version="1.1" width="24px" height="24px">
<g id="surface1">
<path style=" " d="M 12 2 C 8.398438 2 5.105469 4 3.40625 7 L 5.8125 7 C 6.710938 5.898438 7.886719 5 9.1875 4.5 C 8.886719 5.199219 8.699219 6.101563 8.5 7 L 10.59375 7 C 10.992188 5 11.699219 4 12 4 C 12.300781 4 13 5 13.5 7 L 15.59375 7 C 15.394531 6.101563 15.210938 5.199219 14.8125 4.5 C 16.113281 5 17.289063 5.898438 18.1875 7 L 20.59375 7 C 18.894531 4 15.601563 2 12 2 Z M 0 9 L 1.3125 15 L 2.6875 15 L 3.59375 11.5 L 4.40625 15 L 5.6875 15 L 7 9 L 5.59375 9 L 5 12.8125 L 4.09375 9 L 2.90625 9 L 2.09375 12.8125 L 1.40625 9 Z M 8.5 9 L 9.6875 15 L 11.1875 15 L 12 11.5 L 12.8125 15 L 14.1875 15 L 15.5 9 L 14.09375 9 L 13.40625 12.8125 L 12.59375 9 L 11.40625 9 L 10.59375 12.8125 L 9.90625 9 Z M 17 9 L 18.3125 15 L 19.6875 15 L 20.5 11.5 L 21.3125 15 L 22.6875 15 L 24 9 L 22.59375 9 L 21.90625 12.8125 L 21.09375 9 L 19.90625 9 L 19.09375 12.8125 L 18.40625 9 Z M 3.40625 17 C 5.105469 20 8.398438 22 12 22 C 15.601563 22 18.894531 20 20.59375 17 L 18.1875 17 C 17.289063 18.101563 16.113281 19 14.8125 19.5 C 15.113281 18.800781 15.394531 17.898438 15.59375 17 L 13.5 17 C 13 19 12.398438 20 12 20 C 11.601563 20 11 19 10.5 17 L 8.5 17 C 8.699219 17.898438 8.914063 18.800781 9.3125 19.5 C 7.914063 19 6.710938 18.101563 5.8125 17 Z "/>
</g>
</svg>
