<?xml version="1.0"?>
<svg xmlns="http://www.w3.org/2000/svg" viewBox="0 0 16 16" width="16px" height="16px">
    <path style="line-height:normal;text-indent:0;text-align:start;text-decoration-line:none;text-decoration-style:solid;text-decoration-color:#000;text-transform:none;block-progression:tb;isolation:auto;mix-blend-mode:normal" d="M 4.5 2 C 3.6774686 2 3 2.6774686 3 3.5 L 3 12.5 C 3 13.322531 3.6774686 14 4.5 14 L 11.5 14 C 12.322531 14 13 13.322531 13 12.5 L 13 5.2929688 L 12.853516 5.1464844 L 9.7070312 2 L 4.5 2 z M 4.5 3 L 9 3 L 9 6 L 12 6 L 12 12.5 C 12 12.781469 11.781469 13 11.5 13 L 4.5 13 C 4.2185314 13 4 12.781469 4 12.5 L 4 3.5 C 4 3.2185314 4.2185314 3 4.5 3 z M 10 3.7070312 L 11.292969 5 L 10 5 L 10 3.7070312 z M 6.5 7 L 7.8808594 8.3808594 C 7.7395593 8.4862561 7.4973947 8.6617632 7.109375 8.9980469 C 6.86541 9.2094832 6.6194939 9.4376203 6.4179688 9.6660156 C 6.2164434 9.8944109 6 10.0625 6 10.5 C 6 10.878595 6.1586369 11.219081 6.3789062 11.441406 C 6.5991757 11.663732 6.8590341 11.784647 7.0957031 11.861328 C 7.5690411 12.01469 8.0097656 12 8.0097656 12 L 9 12 L 9 11 L 7.9960938 11 L 7.9902344 11 C 7.9902344 11 7.6809589 10.999791 7.4042969 10.910156 C 7.2659665 10.865333 7.1508243 10.799831 7.0898438 10.738281 C 7.0434822 10.691488 7.0204291 10.643957 7.0097656 10.570312 C 7.0244071 10.568246 7.0627041 10.445472 7.1679688 10.326172 C 7.3180059 10.15613 7.54084 9.9467668 7.765625 9.7519531 C 8.1757886 9.396478 8.5203379 9.1414561 8.5898438 9.0898438 L 10 10.5 L 10 7 L 6.5 7 z" font-weight="400" font-family="sans-serif" white-space="normal" overflow="visible"/>
</svg>
