<?xml version="1.0" encoding="UTF-8"?>
<svg xmlns="http://www.w3.org/2000/svg" xmlns:xlink="http://www.w3.org/1999/xlink" viewBox="0 0 24 24" version="1.1" width="24px" height="24px">
<g id="surface1">
<path style=" " d="M 23 7.585938 C 22.609375 6.019531 21.804688 4.539063 20.566406 3.332031 C 19.328125 2.121094 17.828125 1.351563 16.257813 1 L 15.855469 2.773438 C 14.667969 2.277344 13.367188 2 12 2 C 6.484375 2 2 6.484375 2 12 C 2 17.515625 6.484375 22 12 22 C 17.515625 22 22 17.515625 22 12 C 22 10.59375 21.703125 9.257813 21.179688 8.039063 Z M 11 4.070313 L 11 11 L 4.070313 11 C 4.523438 7.386719 7.386719 4.523438 11 4.070313 Z M 4.070313 13 L 11.539063 13 L 16.402344 18.671875 C 15.140625 19.507813 13.625 20 12 20 C 7.929688 20 4.5625 16.941406 4.070313 13 Z M 20 12 C 20 14.066406 19.207031 15.945313 17.914063 17.367188 L 13 11.628906 L 13 4.070313 C 13.851563 4.175781 14.660156 4.417969 15.40625 4.773438 L 14.277344 9.769531 L 19.199219 8.535156 C 19.707031 9.585938 20 10.757813 20 12 Z "/>
</g>
</svg>
