<?xml version="1.0"?>
<svg xmlns="http://www.w3.org/2000/svg" viewBox="0 0 16 16" width="16px" height="16px">
    <path style="line-height:normal;text-indent:0;text-align:start;text-decoration-line:none;text-decoration-style:solid;text-decoration-color:#000;text-transform:none;block-progression:tb;isolation:auto;mix-blend-mode:normal" d="M 4.5 2 C 3.6774686 2 3 2.6774686 3 3.5 L 3 12.5 C 3 13.322531 3.6774686 14 4.5 14 L 7 14 L 7 13 L 4.5 13 C 4.2185314 13 4 12.781469 4 12.5 L 4 3.5 C 4 3.2185314 4.2185314 3 4.5 3 L 9 3 L 9 6 L 12 6 L 12 10 L 13 10 L 13 5.2929688 L 9.7070312 2 L 4.5 2 z M 10 3.7070312 L 11.292969 5 L 10 5 L 10 3.7070312 z M 12 11 C 9.2235015 11 8.1660156 13.300781 8.1660156 13.300781 L 8.0800781 13.5 L 8.1660156 13.699219 C 8.1660156 13.699219 9.2235015 16 12 16 C 14.776498 16 15.833984 13.699219 15.833984 13.699219 L 15.919922 13.5 L 15.833984 13.300781 C 15.833984 13.300781 14.776498 11 12 11 z M 12.125 12.009766 C 14.001906 12.062002 14.625067 13.196655 14.771484 13.5 C 14.621631 13.810464 13.982067 15 12 15 C 10.017933 15 9.3783688 13.810464 9.2285156 13.5 C 9.3736973 13.199214 9.9900912 12.083578 11.830078 12.013672 A 1 1 0 0 0 11 13 A 1 1 0 0 0 12 14 A 1 1 0 0 0 13 13 A 1 1 0 0 0 12.125 12.009766 z" font-weight="400" font-family="sans-serif" white-space="normal" overflow="visible"/>
</svg>
