<?xml version="1.0" encoding="UTF-8"?>
<svg xmlns="http://www.w3.org/2000/svg" xmlns:xlink="http://www.w3.org/1999/xlink" viewBox="0 0 24 24" version="1.1" width="24px" height="24px">
<g id="surface1">
<path style=" " d="M 7 2 C 5.347656 2 4 3.347656 4 5 L 4 19 C 4 20.652344 5.347656 22 7 22 L 18 22 C 19.652344 22 21 20.652344 21 19 L 21 5 C 21 3.347656 19.652344 2 18 2 C 17.539063 2 17.101563 2.066406 16.6875 2.21875 L 17.375 4.09375 C 17.570313 4.023438 17.773438 4 18 4 C 18.550781 4 19 4.449219 19 5 L 19 19 C 19 19.550781 18.550781 20 18 20 L 7 20 C 6.449219 20 6 19.550781 6 19 L 6 5 C 6 4.449219 6.449219 4 7 4 C 7.226563 4 7.429688 4.023438 7.625 4.09375 L 8.3125 2.21875 C 7.898438 2.066406 7.460938 2 7 2 Z M 10 3.40625 L 8.5 4.71875 C 8.742188 5 8.964844 5.375 9.15625 5.8125 L 10.96875 5 C 10.695313 4.382813 10.375 3.839844 10 3.40625 Z M 15 3.40625 C 14.625 3.839844 14.304688 4.382813 14.03125 5 L 15.84375 5.8125 C 16.035156 5.375 16.257813 5 16.5 4.71875 Z M 11.53125 6.65625 L 9.59375 7.125 C 9.703125 7.566406 9.777344 8.054688 9.84375 8.5625 L 11.84375 8.3125 C 11.765625 7.730469 11.660156 7.171875 11.53125 6.65625 Z M 13.46875 6.65625 C 13.339844 7.171875 13.230469 7.730469 13.15625 8.3125 L 15.15625 8.5625 C 15.222656 8.054688 15.296875 7.566406 15.40625 7.125 Z M 11.96875 9.96875 L 9.96875 10.03125 C 9.980469 10.34375 10 10.675781 10 11 C 10 11 9 14.652344 9 15 C 9 16.503906 10.285156 17.75 11.96875 17.96875 C 12.140625 17.992188 12.320313 18 12.5 18 C 12.679688 18 12.859375 17.992188 13.03125 17.96875 C 14.714844 17.75 16 16.503906 16 15 C 16 14.652344 15 11 15 11 C 15 10.675781 15.015625 10.34375 15.03125 10.03125 L 13.03125 9.96875 C 13.015625 10.3125 13 10.644531 13 11 L 12 11 C 12 10.644531 11.984375 10.3125 11.96875 9.96875 Z M 12.5 13 C 13.328125 13 14 13.671875 14 14.5 C 14 15.328125 13.328125 16 12.5 16 C 11.671875 16 11 15.328125 11 14.5 C 11 13.671875 11.671875 13 12.5 13 Z "/>
</g>
</svg>
