<svg xmlns="http://www.w3.org/2000/svg" viewBox="0 0 24 24" enable-background="new 0 0 24 24" width="48" height="48">
    <path style="text-indent:0;text-align:start;line-height:normal;text-transform:none;block-progression:tb;-inkscape-font-specification:Bitstream Vera Sans" d="M 6 2 L 6 4 L 5 4 C 3.9 4 3 4.9 3 6 L 3 20 C 3 21.1 3.9 22 5 22 L 19 22 C 20.1 22 21 21.1 21 20 L 21 6 C 21 4.9 20.1 4 19 4 L 18 4 L 18 2 L 16 2 L 16 4 L 8 4 L 8 2 L 6 2 z M 5 9 L 19 9 L 19 20 L 5 20 L 5 9 z M 7 11 L 7 13 L 9 13 L 9 11 L 7 11 z M 11 11 L 11 13 L 17 13 L 17 11 L 11 11 z M 7 15 L 7 17 L 9 17 L 9 15 L 7 15 z M 11 15 L 11 17 L 15 17 L 15 15 L 11 15 z" color="#000" overflow="visible" enable-background="accumulate" font-family="Bitstream Vera Sans"/>
</svg>