<?xml version="1.0" encoding="utf-8"?>
<!-- Generator: Adobe Illustrator 18.1.1, SVG Export Plug-In . SVG Version: 6.00 Build 0)  -->
<svg version="1.1" id="Layer_1" xmlns="http://www.w3.org/2000/svg" xmlns:xlink="http://www.w3.org/1999/xlink" x="0px" y="0px"
	 viewBox="0 0 24 24" enable-background="new 0 0 24 24" xml:space="preserve">
<path fill="none" stroke="#000000" stroke-width="2" stroke-miterlimit="10" d="M3,7v12c0,1.1,0.9,2,2,2h14c1.1,0,2-0.9,2-2V7
	l-9-3.9L3,7z"/>
<polyline fill="none" stroke="#000000" stroke-width="2" stroke-miterlimit="10" points="21,8 12,4.1 3,8 "/>
<path d="M16,10H8c-0.6,0-1,0.4-1,1v6c0,0.6,0.4,1,1,1h8c0.6,0,1-0.4,1-1v-6C17,10.4,16.6,10,16,10z M16,12.7L12,15l-4-2.3v-1.6
	l4,2.3l4-2.3V12.7z"/>
</svg>
