<?xml version="1.0" encoding="iso-8859-1"?>
<!-- Generator: Adobe Illustrator 20.0.0, SVG Export Plug-In . SVG Version: 6.00 Build 0)  -->
<svg version="1.1" 
	 xmlns="http://www.w3.org/2000/svg" xmlns:xlink="http://www.w3.org/1999/xlink" x="0px" y="0px" viewBox="0 0 24 24"
	 style="enable-background:new 0 0 24 24;" xml:space="preserve">
<circle cx="7" cy="18" r="2"/>
<circle cx="17" cy="18" r="2"/>
<path d="M20.171,9.105C19.832,8.428,19.14,8,18.382,8H14V5c0-0.552-0.448-1-1-1H3C2.448,4,2,4.448,2,5v12c0,0.552,0.448,1,1,1h1
	c0-1.657,1.343-3,3-3s3,1.343,3,3h4c0-1.657,1.343-3,3-3s3,1.343,3,3h1c0.552,0,1-0.448,1-1v-4.236L20.171,9.105z M16,13v-3h2.382
	l1.5,3H16z"/>
</svg>
