<svg xmlns="http://www.w3.org/2000/svg" xmlns:xlink="http://www.w3.org/1999/xlink" viewBox="0 0 24 24" version="1.1" width="48" height="48">
<g id="surface1">
<path style=" " d="M 12 2 C 6.5 2 2 6.5 2 12 C 2 17.5 6.5 22 12 22 C 17.5 22 22 17.5 22 12 C 22 6.5 17.5 2 12 2 Z M 12 4 C 16.398438 4 20 7.601563 20 12 C 20 13.839844 19.367188 15.550781 18.3125 16.90625 L 7.09375 5.6875 C 8.449219 4.632813 10.160156 4 12 4 Z M 5.6875 7.09375 L 16.90625 18.3125 C 15.550781 19.367188 13.839844 20 12 20 C 7.601563 20 4 16.398438 4 12 C 4 10.160156 4.632813 8.449219 5.6875 7.09375 Z "/>
</g>
</svg>