<svg xmlns="http://www.w3.org/2000/svg" version="1" viewBox="0 0 24 24" enable-background="new 0 0 24 24" width="48" height="48">
    <path d="M 9 2 L 2 5.3125 L 2 21.5 C 2 21.8 2.2 22 2.5 22 C 2.6 22 2.6875 22.00625 2.6875 21.90625 L 9 19 L 15 22 L 22 18.6875 L 22 2.5 C 22 2.2 21.8 2 21.5 2 L 21.3125 2 L 15 4 L 9 2 z M 9.09375 4.1875 L 14.3125 5.90625 L 15 6.09375 L 15.59375 5.90625 L 20 4.5 L 20 17.40625 L 15 19.8125 L 9.90625 17.1875 L 9 16.8125 L 8.09375 17.1875 L 4 19.09375 L 4 6.59375 L 9.09375 4.1875 z M 11 6.34375 C 9.903125 6.49375 9.63125 7.725 9.40625 9 C 9.30625 9.4 9.5 10.80625 9.5 11.40625 C 9.6 11.80625 9.79375 12.29375 10.09375 12.59375 C 10.09375 12.59375 10.2125 12.6875 10.3125 12.6875 C 10.4125 12.6875 10.5 12.6 10.5 12.5 C 10.6 12.2 10.7125 11.9875 10.8125 11.6875 C 10.8125 11.5875 10.9 11.4125 11 11.3125 C 11.4 10.9125 11.9125 11.1 12.3125 11.5 C 12.5125 11.6 13.7125 11.6 13.8125 12.5 C 13.8125 13.4 12.5875 12.6 12.1875 12.5 C 11.3875 12.4 11.8875 13.3 12.1875 14 C 12.5875 14.8 13.1 15.7 13.5 16.5 C 13.8 17 14.1875 17.5875 14.6875 17.6875 C 15.3875 16.8875 15.20625 15.50625 15.40625 14.40625 C 15.40625 14.10625 15.4875 13.79375 15.6875 13.59375 C 15.8875 13.39375 16.2 13.2875 16.5 13.1875 C 16.7 13.0875 16.80625 13.00625 16.90625 12.90625 C 18.10625 13.20625 17.9 12.30625 17.5 11.40625 C 17.3 10.90625 17.29375 10.2125 17.59375 9.8125 C 17.89375 9.3125 18.4875 8.90625 18.6875 8.40625 C 18.7875 8.20625 18.90625 7.8875 18.90625 7.6875 C 18.90625 7.3875 19 7.1125 19 6.8125 L 19 6.59375 C 18.9 6.59375 18.7875 6.5875 18.6875 6.6875 L 18.09375 7.3125 C 17.89375 7.5125 17.6125 7.5875 17.3125 7.6875 C 16.6125 7.8875 16.0125 7.90625 15.3125 7.90625 C 15.0125 7.90625 14.6125 7.80625 14.3125 7.90625 C 13.7125 8.10625 14 8.09375 14 8.59375 C 14 8.79375 13.2 9 13 9 C 12.6 9 11.6125 8.4 11.8125 8 C 12.0125 6.9 12.7875 7.99375 13.1875 8.09375 C 13.5875 8.09375 13.40625 7.7 13.40625 7.5 C 13.40625 7.2 12.70625 6.69375 12.40625 6.59375 C 11.83125 6.36875 11.365625 6.29375 11 6.34375 z M 6.3125 6.53125 C 6.2375 6.53125 6.14375 6.54375 6.09375 6.59375 C 5.89375 6.69375 5.6875 6.8875 5.6875 7.1875 C 5.6875 7.4875 5.79375 7.79375 5.59375 8.09375 C 5.49375 8.29375 5.19375 8.3 5.09375 8.5 C 4.99375 8.6 5 8.89375 5 9.09375 C 5.1 9.69375 5.1875 10.4 5.1875 11 C 5.2875 11.5 5.60625 11.7 5.90625 12 C 6.20625 12.3 6.6 12.40625 6.5 12.90625 C 6.4 13.60625 6.29375 14.30625 6.09375 14.90625 C 5.99375 15.30625 5.90625 15.7 5.90625 16 C 5.90625 16.3 5.8125 16.9 6.3125 16.5 C 7.3125 15.5 7.9125 13.9875 8.3125 12.6875 C 8.4125 12.3875 8.49375 11.9875 8.59375 11.6875 C 8.59375 11.4875 8.69375 11.3875 8.59375 11.1875 C 8.49375 10.9875 8.29375 10.99375 8.09375 11.09375 C 7.79375 11.19375 7.49375 11.4 7.09375 11.5 C 6.69375 11.6 6.40625 11.3 6.40625 11 C 6.40625 10.8 6.60625 10.59375 6.90625 10.59375 C 7.10625 10.59375 7.3 10.5875 7.5 10.6875 C 7.5 10.2875 7.4 9.9 7.5 9.5 C 8 9.3 8.4 8.69375 8.5 8.09375 C 8.6 7.89375 8.80625 7.00625 8.40625 6.90625 L 8.3125 6.90625 C 8.2125 6.90625 8.1 6.9125 8 6.8125 C 8 7.0125 7.79375 7.2125 7.59375 7.3125 C 7.49375 7.4125 7.3875 7.30625 7.1875 7.40625 C 7.0875 7.50625 7.00625 7.59375 6.90625 7.59375 C 6.90625 7.69375 6.7875 7.8125 6.6875 7.8125 C 6.5875 7.8125 6.50625 7.7875 6.40625 7.6875 C 6.30625 7.5875 6.40625 7.4125 6.40625 7.3125 C 6.40625 7.2125 6.5 7.09375 6.5 7.09375 C 6.5 7.09375 6.59375 7.00625 6.59375 6.90625 C 6.59375 6.80625 6.6 6.69375 6.5 6.59375 C 6.45 6.54375 6.3875 6.53125 6.3125 6.53125 z M 18.25 13.5625 C 18.125 13.5875 18.00625 13.6375 17.90625 13.6875 C 17.40625 13.8875 16.8875 14.10625 16.6875 14.40625 C 16.1875 15.10625 17.19375 15.8125 17.59375 16.3125 C 17.59375 16.4125 17.7125 16.40625 17.8125 16.40625 C 17.9125 16.40625 18.09375 16.4125 18.09375 16.3125 C 18.19375 16.2125 18.2125 16.1 18.3125 16 C 18.4125 15.6 18.4875 15.30625 18.6875 14.90625 C 18.7875 14.70625 18.90625 14.4875 18.90625 14.1875 C 18.90625 13.9875 18.79375 13.69375 18.59375 13.59375 C 18.49375 13.54375 18.375 13.5375 18.25 13.5625 z"/>
</svg>