<svg xmlns="http://www.w3.org/2000/svg" viewBox="0 0 24 24" enable-background="new 0 0 24 24" width="48" height="48">
    <path style="text-indent:0;text-align:start;line-height:normal;text-transform:none;block-progression:tb;-inkscape-font-specification:Bitstream Vera Sans" d="M 6 2 L 6 4 L 6 5 L 6 20 C 6 21.1 6.9 22 8 22 L 16 22 C 17.1 22 18 21.1 18 20 L 18 6 C 18 4.9 17.1 4 16 4 L 8 4 L 8 2 L 6 2 z M 8.5 6 L 15.5 6 C 15.8 6 16 6.2 16 6.5 L 16 11.5 C 16 11.8 15.8 12 15.5 12 L 8.5 12 C 8.2 12 8 11.8 8 11.5 L 8 6.5 C 8 6.2 8.2 6 8.5 6 z" color="#000" overflow="visible" enable-background="accumulate" font-family="Bitstream Vera Sans"/>
</svg>