<svg xmlns="http://www.w3.org/2000/svg" viewBox="0 0 24 24" width="48" height="48">
    <path d="M20,2h-9C9.895,2,9,2.895,9,4v12c0,1.105,0.895,2,2,2v1c0,0.542-0.343,1-0.75,1h-3.5C6.343,20,6,19.542,6,19v-1 c0.552,0,1-0.448,1-1V3c0-0.552-0.448-1-1-1H4C3.448,2,3,2.448,3,3v14c0,0.552,0.448,1,1,1v1c0,1.654,1.233,3,2.75,3h3.5 c1.517,0,2.75-1.346,2.75-3v-1h7c1.105,0,2-3.578,2-8S21.105,2,20,2z M12,16c-0.552,0-1-0.448-1-1c0-0.552,0.448-1,1-1s1,0.448,1,1 C13,15.552,12.552,16,12,16z M12,12c-0.552,0-1-0.448-1-1c0-0.552,0.448-1,1-1s1,0.448,1,1C13,11.552,12.552,12,12,12z M15,16 c-0.552,0-1-0.448-1-1c0-0.552,0.448-1,1-1s1,0.448,1,1C16,15.552,15.552,16,15,16z M15,12c-0.552,0-1-0.448-1-1 c0-0.552,0.448-1,1-1s1,0.448,1,1C16,11.552,15.552,12,15,12z M18,16c-0.552,0-1-0.448-1-1c0-0.552,0.448-1,1-1s1,0.448,1,1 C19,15.552,18.552,16,18,16z M18,12c-0.552,0-1-0.448-1-1c0-0.552,0.448-1,1-1s1,0.448,1,1C19,11.552,18.552,12,18,12z M19,8h-8V4h8 V8z"/>
</svg>