<?xml version="1.0" encoding="UTF-8"?>
<svg xmlns="http://www.w3.org/2000/svg" xmlns:xlink="http://www.w3.org/1999/xlink" width="96pt" height="96pt" viewBox="0 0 96 96" version="1.1">
<g id="surface1">
<path style=" stroke:none;fill-rule:nonzero;fill:rgb(0%,0%,0%);fill-opacity:1;" d="M 84 40 C 83.253906 40 82.542969 40.136719 81.859375 40.328125 L 71.378906 27.085938 C 71.777344 26.136719 72 25.09375 72 24 C 72 19.578125 68.421875 16 64 16 C 60.980469 16 58.378906 17.695313 57.019531 20.167969 L 38.980469 20.167969 C 37.621094 17.695313 35.019531 16 32 16 C 27.578125 16 24 19.578125 24 24 C 24 25.101563 24.222656 26.152344 24.628906 27.109375 L 14.148438 40.328125 C 13.460938 40.136719 12.746094 40 12 40 C 7.578125 40 4 43.578125 4 48 C 4 52.421875 7.578125 56 12 56 C 12.707031 56 13.378906 55.878906 14.03125 55.707031 L 24.578125 69.035156 C 24.214844 69.957031 24 70.953125 24 72 C 24 76.421875 27.578125 80 32 80 C 34.953125 80 37.503906 78.378906 38.890625 76 L 57.113281 76 C 58.496094 78.378906 61.046875 80 64.003906 80 C 68.425781 80 72.003906 76.421875 72.003906 72 C 72.003906 70.945313 71.789063 69.9375 71.414063 69.011719 L 81.964844 55.703125 C 82.617188 55.878906 83.292969 56 84 56 C 88.421875 56 92 52.421875 92 48 C 92 43.578125 88.421875 40 84 40 Z M 76.230469 49.832031 L 65.15625 64.117188 C 64.777344 64.058594 64.394531 64 64 64 C 61.035156 64 58.480469 65.628906 57.097656 68.023438 L 38.902344 68.023438 C 37.519531 65.628906 34.964844 64 32 64 C 31.597656 64 31.207031 64.058594 30.820313 64.121094 L 19.769531 49.839844 C 19.90625 49.246094 20 48.636719 20 48 C 20 47.410156 19.929688 46.839844 19.808594 46.289063 L 30.964844 31.894531 C 31.308594 31.941406 31.644531 32 32 32 C 34.894531 32 37.40625 30.449219 38.8125 28.144531 L 57.1875 28.144531 C 58.59375 30.449219 61.105469 32 64 32 C 64.363281 32 64.707031 31.941406 65.058594 31.890625 L 76.195313 46.28125 C 76.074219 46.835938 76 47.40625 76 48 C 76 48.632813 76.09375 49.238281 76.230469 49.832031 Z "/>
</g>
</svg>
