<?xml version="1.0" encoding="UTF-8"?>
<svg xmlns="http://www.w3.org/2000/svg" xmlns:xlink="http://www.w3.org/1999/xlink" width="96pt" height="96pt" viewBox="0 0 96 96" version="1.1">
<g id="surface1">
<path style=" stroke:none;fill-rule:nonzero;fill:rgb(0%,0%,0%);fill-opacity:1;" d="M 28.921875 37.351563 L 26.246094 37.554688 L 26.320313 47.410156 L 28.992188 47.402344 C 32.78125 47.390625 34.742188 45.625 34.714844 42.09375 C 34.691406 38.636719 32.707031 37.0625 28.921875 37.351563 Z "/>
<path style=" stroke:none;fill-rule:nonzero;fill:rgb(0%,0%,0%);fill-opacity:1;" d="M 52 8 L 8 16 L 8 80 L 52 88 L 56 88 L 56 8 Z M 29.617188 52.929688 L 26.363281 52.808594 L 26.445313 63.699219 L 20 62.953125 L 20 32.828125 L 30.089844 31.632813 C 39.921875 30.761719 41.164063 38.085938 41.164063 41.9375 C 41.164063 45.789063 38.433594 53.484375 29.617188 52.929688 Z "/>
<path style=" stroke:none;fill-rule:nonzero;fill:rgb(0%,0%,0%);fill-opacity:1;" d="M 60 20 L 60 32 L 76 32 L 76 44 L 82 44 L 74 52 L 66 44 L 72 44 L 72 36 L 60 36 L 60 50 L 70 60 L 60 70 L 60 76 L 88 76 L 88 20 Z "/>
</g>
</svg>
